{"glyphs":{"0":{"ha":1025,"x_min":-7,"x_max":963,"o":"m 963 247 l 711 -4 l -7 -6 l -7 751 l 246 1003 l 963 1003 l 963 247 m 571 903 l 468 903 l 468 799 l 571 903 m 939 989 l 251 989 l 18 754 l 297 754 l 458 917 l 604 917 l 442 754 l 704 756 l 939 989 m 700 8 l 700 742 l 432 740 l 433 229 l 292 229 l 292 740 l 7 740 l 7 8 l 700 8 m 419 243 l 419 346 l 315 243 l 419 243 z "},"1":{"ha":621,"x_min":-7,"x_max":558,"o":"m 558 251 l 303 -4 l -7 -4 l -7 749 l 249 1003 l 558 1003 l 558 251 m 533 989 l 254 989 l 17 753 l 296 753 l 533 989 m 293 10 l 293 739 l 7 739 l 7 10 l 293 10 z "},"2":{"ha":1028,"x_min":-7,"x_max":964,"o":"m 964 1003 l 964 857 l 713 604 l 413 604 l 413 385 l 833 385 l 833 117 l 713 -4 l -7 -4 l -7 750 l 97 854 l 157 854 l 157 914 l 246 1003 l 964 1003 m 940 989 l 251 989 l 182 918 l 581 918 l 501 840 l 104 840 l 17 754 l 706 754 l 940 989 m 547 906 l 171 904 l 171 854 l 496 854 l 547 906 m 810 371 l 408 371 l 304 265 l 706 265 l 810 371 m 703 10 l 703 251 l 279 251 l 281 618 l 703 618 l 703 740 l 7 740 l 7 10 l 703 10 z "},"3":{"ha":932,"x_min":-7,"x_max":869,"o":"m 869 246 l 619 -4 l -7 -4 l -7 265 l 236 508 l 318 508 l 318 604 l -7 604 l -7 750 l 97 854 l 161 854 l 161 914 l 249 1003 l 869 1003 l 869 246 m 844 989 l 256 989 l 185 918 l 490 918 l 411 840 l 104 840 l 17 754 l 610 754 l 844 989 m 456 904 l 175 904 l 175 854 l 406 854 l 456 904 m 606 10 l 606 740 l 7 740 l 7 618 l 332 618 l 332 251 l 7 251 l 7 10 l 606 10 m 318 265 l 318 494 l 243 494 l 14 265 l 318 265 z "},"4":{"ha":1125,"x_min":-7,"x_max":1063,"o":"m 1063 658 l 1063 504 l 964 406 l 964 247 l 713 -4 l 401 -4 l 401 253 l -7 253 l -7 750 l 246 1003 l 543 1003 l 543 890 l 656 1003 l 965 1003 l 965 658 l 1063 658 m 942 989 l 661 989 l 426 754 l 707 754 l 942 989 m 1038 644 l 961 644 l 728 410 l 804 410 l 1038 644 m 519 989 l 251 989 l 17 754 l 285 754 l 519 989 m 401 410 l 401 506 l 306 410 l 401 410 m 800 267 l 800 396 l 703 396 l 703 740 l 415 740 l 415 396 l 281 396 l 281 740 l 7 740 l 7 265 l 415 267 l 415 10 l 703 10 l 703 267 l 800 267 z "},"5":{"ha":1001,"x_min":-7,"x_max":939,"o":"m 939 247 l 853 161 l 600 161 l 435 -4 l -7 -4 l -7 261 l 97 367 l 140 367 l 140 406 l 247 514 l 318 513 l 318 604 l -7 604 l -7 750 l 247 1003 l 939 1003 l 939 247 m 917 989 l 253 989 l 17 754 l 685 754 l 772 840 l 383 840 l 463 918 l 847 918 l 917 989 m 843 174 l 844 904 l 472 904 l 472 854 l 796 854 l 796 354 l 614 175 l 843 174 m 681 261 l 681 740 l 7 740 l 7 618 l 332 618 l 332 251 l 7 251 l 7 10 l 429 10 l 681 261 m 318 413 l 318 499 l 250 499 l 165 413 l 318 413 m 317 367 l 317 399 l 154 399 l 154 367 l 317 367 m 317 265 l 317 353 l 104 353 l 17 265 l 317 265 z "},"6":{"ha":1036,"x_min":-7,"x_max":974,"o":"m 974 1003 l 974 244 l 886 157 l 824 157 l 824 96 l 719 -10 l -7 -10 l -7 749 l 247 1003 l 974 1003 m 953 989 l 253 989 l 17 753 l 714 753 l 801 840 l 386 840 l 465 918 l 881 918 l 953 989 m 876 904 l 475 904 l 475 854 l 824 854 l 824 171 l 876 171 l 876 904 m 710 4 l 708 739 l 7 739 l 7 4 l 710 4 m 418 247 l 282 247 l 282 615 l 418 615 l 418 247 m 404 261 l 404 357 l 308 261 l 404 261 z "},"7":{"ha":760,"x_min":-6,"x_max":697,"o":"m 697 250 l 444 -4 l 135 -4 l 135 161 l -6 161 l -6 914 l 82 1003 l 697 1003 l 697 250 m 672 989 l 86 989 l 17 918 l 322 918 l 158 754 l 438 754 l 672 989 m 290 904 l 7 904 l 7 175 l 135 175 l 135 750 l 290 904 m 433 10 l 433 740 l 149 740 l 149 10 l 433 10 z "},"8":{"ha":1028,"x_min":-7,"x_max":965,"o":"m 965 903 l 965 247 l 715 -4 l -7 -4 l -7 653 l 342 1003 l 869 1003 l 869 903 l 965 903 m 943 889 l 865 889 l 629 654 l 708 654 l 943 889 m 844 989 l 346 989 l 113 754 l 610 754 l 844 989 m 89 726 l 17 656 l 89 656 l 89 726 m 704 10 l 704 640 l 606 640 l 606 740 l 101 740 l 103 642 l 7 642 l 7 10 l 704 10 m 588 918 l 510 840 l 392 840 l 469 918 l 588 918 m 419 239 l 286 239 l 286 604 l 419 604 l 419 239 m 554 904 l 479 904 l 479 854 l 504 854 l 554 904 m 406 253 l 406 349 l 310 253 l 406 253 z "},"9":{"ha":1028,"x_min":-7,"x_max":965,"o":"m 965 1003 l 964 249 l 713 -4 l 401 -4 l 401 253 l -7 251 l -7 750 l 246 1003 l 965 1003 m 558 906 l 461 906 l 461 808 l 558 906 m 942 989 l 251 989 l 17 754 l 286 754 l 451 919 l 590 919 l 426 754 l 707 754 l 942 989 m 401 410 l 401 504 l 306 410 l 401 410 m 703 10 l 703 740 l 415 740 l 415 396 l 281 396 l 281 740 l 7 740 l 7 267 l 415 267 l 415 10 l 703 10 z "}," ":{"ha":556,"x_min":0,"x_max":0,"o":""},"!":{"ha":628,"x_min":-7,"x_max":565,"o":"m 565 264 l 293 -7 l -7 -7 l -7 229 l 88 325 l -7 325 l -7 733 l 263 1003 l 563 1003 l 563 593 l 475 507 l 565 507 l 565 264 m 539 989 l 268 989 l 17 738 l 286 738 l 539 989 m 283 724 l 7 724 l 7 339 l 283 339 l 283 724 m 544 494 l 463 494 l 293 325 l 107 325 l 17 233 l 283 233 l 544 494 m 279 7 l 279 219 l 7 219 l 7 7 l 279 7 z "},"\"":{"ha":913,"x_min":-7,"x_max":850,"o":"m 850 413 l 594 156 l 354 156 l 354 746 l 608 1000 l 850 1000 l 850 413 m 824 986 l 614 986 l 378 750 l 588 750 l 824 986 m 585 169 l 585 736 l 368 736 l 368 169 l 585 169 m 850 413 l 594 156 l 354 156 l 354 746 l 608 1000 l 850 1000 l 850 413 m 824 986 l 614 986 l 378 750 l 588 750 l 824 986 m 585 169 l 585 736 l 368 736 l 368 169 l 585 169 m 489 861 l 368 740 l 368 292 l 233 156 l -7 156 l -7 746 l 249 1000 l 489 1000 l 489 861 m 465 986 l 253 986 l 17 750 l 226 750 l 465 986 m 224 169 l 224 736 l 7 736 l 7 169 l 224 169 z "},"#":{"ha":1040,"x_min":-6,"x_max":976,"o":"m 976 654 l 976 503 l 831 358 l 831 246 l 581 -4 l 415 -3 l 415 108 l 304 -3 l 140 -4 l 140 253 l -6 253 l -6 404 l 140 550 l 140 590 l -6 590 l -6 750 l 101 856 l 242 856 l 389 1003 l 556 1003 l 556 889 l 669 1003 l 833 1003 l 833 654 l 976 654 m 953 640 l 829 640 l 596 408 l 719 408 l 953 640 m 810 989 l 675 989 l 526 840 l 383 840 l 532 989 l 394 989 l 247 842 l 106 842 l 18 754 l 721 754 l 808 842 l 663 842 l 810 989 m 717 740 l 8 740 l 8 604 l 154 604 l 154 394 l 8 394 l 8 267 l 154 267 l 154 10 l 296 11 l 296 267 l 429 267 l 429 11 l 571 10 l 571 267 l 717 267 l 717 394 l 572 394 l 572 606 l 717 606 l 717 740 m 140 410 l 140 531 l 18 410 l 140 410 m 429 396 l 296 396 l 296 603 l 429 603 l 429 396 m 415 410 l 415 506 l 319 410 l 415 410 z "},"$":{"ha":1025,"x_min":-7,"x_max":963,"o":"m 963 244 l 872 154 l 814 154 l 814 94 l 708 -11 l 667 -11 l 667 -19 l 433 -254 l 189 -254 l 189 -11 l -7 -11 l -7 257 l 96 361 l 158 361 l 158 419 l 247 508 l 382 508 l 382 601 l -7 601 l -7 749 l 247 1003 l 549 1003 l 694 1149 l 940 1149 l 940 1003 l 963 1003 l 963 244 m 938 989 l 769 989 l 915 1135 l 700 1135 l 554 989 l 253 989 l 17 753 l 703 753 l 790 840 l 388 840 l 467 919 l 868 919 l 938 989 m 864 906 l 476 906 l 476 854 l 814 854 l 814 168 l 864 168 l 864 906 m 382 494 l 253 494 l 181 424 l 382 424 l 382 494 m 382 361 l 382 410 l 172 410 l 172 361 l 382 361 m 699 3 l 699 739 l 7 739 l 7 615 l 396 615 l 396 247 l 7 247 l 7 3 l 203 3 l 203 -240 l 424 -240 l 424 3 l 699 3 m 382 347 l 103 347 l 15 261 l 382 261 l 382 347 z "},"%":{"ha":1542,"x_min":-7,"x_max":1479,"o":"m 1479 249 l 1226 -4 l 793 -4 l 793 199 l 593 -1 l 278 -4 l 413 288 l -7 288 l -7 751 l 244 1003 l 676 1003 l 678 799 l 881 1004 l 1192 1004 l 1057 706 l 1479 706 l 1479 249 m 1164 990 l 886 990 l 651 756 l 931 756 l 1164 990 m 1196 613 l 1146 613 l 1146 563 l 1196 613 m 1454 692 l 1050 692 l 817 458 l 968 458 l 1136 626 l 1229 626 l 1061 458 l 1221 457 l 1454 692 m 394 908 l 343 908 l 343 858 l 394 908 m 1217 10 l 1217 443 l 1050 444 l 1050 138 l 964 138 l 964 444 l 807 444 l 807 10 l 1217 10 m 653 989 l 250 989 l 17 756 l 168 756 l 335 922 l 426 922 l 261 756 l 421 756 l 653 989 m 1036 151 l 1036 200 l 988 151 l 1036 151 m 922 742 l 639 742 l 300 10 l 583 10 l 922 742 m 417 301 l 417 742 l 251 742 l 251 435 l 164 435 l 164 742 l 7 742 l 7 301 l 417 301 m 238 449 l 238 496 l 190 449 l 238 449 z "},"&":{"ha":1051,"x_min":-7,"x_max":989,"o":"m 989 247 l 903 161 l 794 161 l 794 101 l 689 -4 l -7 -3 l -7 750 l 54 813 l 161 846 l 161 921 l 243 1003 l 989 1003 l 989 247 m 817 839 l 464 839 l 379 754 l 733 754 l 817 839 m 965 989 l 249 989 l 178 918 l 239 856 l 63 800 l 17 754 l 293 754 l 460 921 l 896 921 l 965 989 m 893 175 l 893 907 l 468 907 l 468 853 l 840 853 l 840 707 l 794 661 l 794 175 l 893 175 m 214 863 l 174 903 l 174 849 l 214 863 m 729 618 l 729 740 l 369 740 l 369 618 l 424 618 l 424 247 l 290 247 l 289 740 l 8 740 l 7 11 l 679 10 l 679 618 l 729 618 m 410 261 l 410 358 l 314 261 l 410 261 z "},"'":{"ha":551,"x_min":-7,"x_max":489,"o":"m 489 413 l 233 156 l -7 156 l -7 746 l 247 1000 l 489 1000 l 489 413 m 463 986 l 253 986 l 17 750 l 226 750 l 463 986 m 224 169 l 224 736 l 7 736 l 7 169 l 224 169 z "},"(":{"ha":693,"x_min":-7,"x_max":631,"o":"m 631 -1 l 378 -254 l 238 -254 l -7 -10 l -7 896 l 244 1147 l 631 1147 l 631 -1 m 604 1133 l 251 1133 l 17 900 l 214 900 l 378 1065 l 538 1065 l 604 1133 m 533 176 l 533 1051 l 385 1051 l 386 176 l 533 176 m 368 -240 l 368 -1 l 210 -1 l 210 886 l 7 886 l 7 -3 l 244 -240 l 368 -240 m 524 163 l 382 163 l 233 13 l 372 13 l 524 163 z "},")":{"ha":692,"x_min":-6,"x_max":629,"o":"m 629 235 l 139 -254 l -4 -254 l -6 11 l 151 168 l 151 1061 l 238 1147 l 629 1147 l 629 235 m 606 1133 l 244 1133 l 176 1065 l 340 1065 l 175 901 l 374 901 l 606 1133 m 306 1051 l 165 1051 l 165 911 l 306 1051 m 369 -4 l 369 888 l 165 888 l 165 1 l 7 1 l 7 -240 l 133 -240 l 369 -4 m 151 149 l 17 15 l 151 15 l 151 149 z "},"*":{"ha":1051,"x_min":-11,"x_max":999,"o":"m 999 714 l 779 497 l 849 274 l 596 21 l 368 186 l 128 13 l 219 294 l -11 461 l 243 714 l 356 714 l 354 726 l 353 724 l 617 988 l 706 714 l 999 714 m 964 700 l 704 700 l 471 469 l 732 469 l 964 700 m 350 700 l 250 700 l 17 469 l 275 469 l 350 700 m 714 456 l 449 456 l 368 707 l 286 456 l 21 456 l 235 300 l 154 49 l 368 204 l 582 49 l 500 300 l 714 456 z "},"+":{"ha":1061,"x_min":-7,"x_max":999,"o":"m 999 747 l 999 510 l 486 -4 l 249 -4 l 249 254 l -7 254 l -7 493 l 501 1003 l 738 1003 l 738 747 l 999 747 m 715 989 l 507 990 l 272 756 l 481 756 l 715 989 m 975 733 l 735 733 l 499 497 l 739 497 l 975 733 m 250 497 l 249 732 l 15 497 l 250 497 m 735 268 l 735 483 l 476 483 l 476 742 l 263 742 l 263 483 l 7 483 l 7 268 l 263 268 l 263 10 l 476 10 l 476 268 l 735 268 z "},",":{"ha":621,"x_min":-7,"x_max":558,"o":"m 558 265 l 135 -157 l 136 -3 l -7 -4 l -7 235 l 261 504 l 558 504 l 558 265 m 533 490 l 267 490 l 17 239 l 282 239 l 533 490 m 279 6 l 278 225 l 7 225 l 7 10 l 150 11 l 149 -124 l 279 6 z "},"-":{"ha":722,"x_min":-7,"x_max":660,"o":"m 660 632 l 408 383 l -7 383 l -7 621 l 246 872 l 660 872 l 660 632 m 638 858 l 251 858 l 17 625 l 403 625 l 638 858 m 399 397 l 399 611 l 7 611 l 7 397 l 399 397 z "},".":{"ha":621,"x_min":-7,"x_max":558,"o":"m 558 269 l 286 -3 l -7 -3 l -7 233 l 265 506 l 558 506 l 558 269 m 535 492 l 271 492 l 17 238 l 281 238 l 535 492 m 276 11 l 276 224 l 7 224 l 7 11 l 276 11 z "},"/":{"ha":961,"x_min":-11,"x_max":908,"o":"m 908 1004 l 558 253 l 303 -4 l 301 -4 l -11 -4 l 340 753 l 592 1004 l 908 1004 m 875 990 l 597 990 l 364 756 l 642 757 l 875 990 m 633 742 l 350 742 l 11 10 l 294 10 l 633 742 z "},":":{"ha":621,"x_min":-7,"x_max":558,"o":"m 558 653 l 286 381 l -7 381 l -7 617 l 265 889 l 558 889 l 558 653 m 535 875 l 271 875 l 17 621 l 281 621 l 535 875 m 276 394 l 276 607 l 7 607 l 7 394 l 276 394 m 558 271 l 286 -3 l -7 -3 l -7 233 l 154 396 l 282 394 l 394 506 l 558 506 l 558 271 m 533 492 l 400 492 l 286 379 l 160 381 l 17 238 l 281 239 l 533 492 m 276 11 l 276 225 l 7 224 l 7 11 l 276 11 z "},";":{"ha":621,"x_min":-7,"x_max":558,"o":"m 558 653 l 286 381 l -7 381 l -7 617 l 265 889 l 558 889 l 558 653 m 535 875 l 271 875 l 17 621 l 281 621 l 535 875 m 276 394 l 276 607 l 7 607 l 7 394 l 276 394 m 558 267 l 135 -156 l 135 -3 l -7 -4 l -7 233 l 154 394 l 281 394 l 393 506 l 558 506 l 558 267 m 535 492 l 397 492 l 285 379 l 160 379 l 17 238 l 281 239 l 535 492 m 279 8 l 278 224 l 7 225 l 7 10 l 150 11 l 149 -122 l 279 8 z "},"<":{"ha":724,"x_min":-7,"x_max":663,"o":"m 663 294 l 360 -10 l -7 357 q -7 500 -7 428 l 663 1168 l 663 904 l 479 722 l 663 538 l 663 294 m 643 536 l 468 711 l 186 429 l 361 254 l 643 536 m 351 22 l 351 240 l 163 429 l 351 617 l 351 835 l 10 493 l 10 364 l 351 22 z "},"=":{"ha":1065,"x_min":-7,"x_max":1003,"o":"m 1003 556 l 1003 385 l 751 133 l -7 133 l -7 303 l 142 453 l -7 453 l -7 622 l 246 875 l 1001 875 l 1003 704 l 853 554 l 1003 556 m 978 861 l 251 860 l 17 626 l 744 626 l 978 861 m 979 542 l 844 542 l 753 451 l 161 451 l 17 307 l 746 308 l 979 542 m 742 467 l 742 613 l 7 613 l 7 467 l 742 467 m 742 147 l 742 294 l 7 293 l 7 147 l 742 147 z "},">":{"ha":722,"x_min":-8,"x_max":661,"o":"m 661 654 l -8 -15 l -8 247 l 174 429 l -8 611 l -8 854 l 293 1158 l 661 790 l 661 654 m 640 789 l 294 1136 l 11 854 l 358 507 l 640 789 m 350 365 l 350 492 l 8 835 l 8 617 l 196 429 l 8 240 l 8 24 l 350 365 z "},"?":{"ha":1026,"x_min":-7,"x_max":964,"o":"m 964 1003 l 964 857 l 713 604 l 565 604 l 469 508 l 556 508 l 556 264 l 286 -4 l -7 -4 l -7 235 l 86 328 l -7 328 l -7 750 l 99 854 l 157 854 l 157 914 l 247 1003 l 964 1003 m 940 989 l 251 989 l 182 918 l 575 918 l 499 840 l 103 840 l 17 754 l 706 754 l 940 989 m 542 904 l 171 904 l 171 854 l 492 854 l 542 904 m 703 618 l 703 740 l 7 740 l 7 342 l 281 342 l 281 618 l 703 618 m 535 493 l 456 494 l 290 328 l 107 328 l 17 239 l 281 239 l 535 493 m 276 10 l 276 225 l 7 225 l 7 10 l 276 10 z "},"@":{"ha":979,"x_min":-7,"x_max":917,"o":"m 917 504 l 838 425 l 917 425 l 917 265 l 646 -4 l 149 -4 l -7 150 l -7 750 l 246 1003 l 917 1003 l 917 504 m 644 904 l 322 904 l 324 822 l 356 854 l 593 856 l 644 904 m 893 989 l 250 989 l 17 754 l 149 754 l 313 918 l 676 918 l 599 842 l 361 840 l 274 754 l 658 754 l 893 989 m 654 267 l 654 740 l 265 740 l 265 267 l 654 267 m 893 411 l 825 411 l 664 253 l 260 253 l 167 160 l 642 160 l 893 411 m 638 10 l 638 146 l 143 146 l 143 740 l 7 740 l 7 156 l 153 10 l 638 10 m 529 396 l 396 396 l 396 604 l 528 604 l 529 396 m 515 410 l 515 504 l 419 410 l 515 410 z "},"A":{"ha":1026,"x_min":-7,"x_max":964,"o":"m 964 247 l 713 -4 l 406 -4 l 406 104 l 296 -4 l -7 -4 l -7 651 l 342 1003 l 867 1003 l 867 903 l 964 903 l 964 247 m 940 889 l 863 889 l 628 654 l 706 654 l 940 889 m 844 989 l 347 989 l 113 754 l 610 754 l 844 989 m 89 726 l 17 656 l 89 656 l 89 726 m 701 10 l 701 640 l 606 640 l 606 740 l 101 740 l 103 642 l 7 642 l 7 10 l 285 10 l 285 618 l 419 618 l 419 10 l 701 10 m 590 918 l 511 840 l 392 840 l 471 919 l 590 918 m 557 904 l 479 904 l 479 854 l 504 854 l 557 904 z "},"B":{"ha":1026,"x_min":-7,"x_max":964,"o":"m 964 249 l 713 -4 l -7 -4 l -7 750 l 246 1003 l 868 1003 l 868 906 l 964 906 l 964 249 m 940 892 l 864 892 l 629 657 l 707 657 l 940 892 m 844 989 l 251 989 l 17 754 l 610 754 l 844 989 m 703 10 l 703 643 l 606 643 l 606 740 l 7 740 l 7 10 l 703 10 m 583 921 l 503 843 l 385 843 l 464 922 l 583 921 m 414 251 l 281 251 l 281 617 l 414 617 l 414 251 m 550 907 l 471 908 l 471 857 l 500 857 l 550 907 m 401 265 l 401 361 l 306 265 l 401 265 z "},"C":{"ha":908,"x_min":-7,"x_max":846,"o":"m 846 246 l 597 -4 l 240 -4 l -7 243 l -7 751 l 244 1003 l 846 1003 l 846 246 m 822 989 l 251 989 l 17 756 l 282 756 l 451 921 l 756 921 l 822 989 m 751 431 l 751 907 l 461 907 l 460 431 l 751 431 m 742 417 l 457 417 l 306 265 l 590 267 l 742 417 m 588 10 l 586 253 l 278 251 l 278 742 l 7 742 l 7 249 l 247 10 l 588 10 z "},"D":{"ha":935,"x_min":-7,"x_max":872,"o":"m 872 903 l 872 254 l 614 -4 l -7 -4 l -7 750 l 244 1003 l 774 1003 l 872 903 m 560 906 l 463 906 l 463 808 l 560 906 m 853 903 l 769 989 l 251 989 l 17 754 l 285 754 l 450 919 l 590 919 l 426 754 l 707 754 l 853 903 m 703 104 l 703 740 l 415 740 l 415 251 l 281 251 l 281 740 l 7 740 l 7 10 l 608 10 l 703 104 m 401 265 l 401 361 l 306 265 l 401 265 z "},"E":{"ha":929,"x_min":-7,"x_max":867,"o":"m 867 247 l 615 -4 l -7 -4 l -7 750 l 246 1003 l 867 1003 l 867 247 m 843 989 l 251 989 l 17 754 l 613 754 l 699 840 l 385 840 l 463 918 l 774 918 l 843 989 m 768 429 l 768 904 l 472 904 l 472 854 l 724 854 l 724 710 l 618 604 l 458 604 l 458 429 l 768 429 m 760 415 l 454 417 l 304 265 l 610 265 l 760 415 m 608 618 l 608 740 l 7 740 l 7 10 l 606 10 l 606 251 l 281 251 l 281 618 l 608 618 z "},"F":{"ha":933,"x_min":-7,"x_max":871,"o":"m 871 250 l 782 163 l 785 168 l 785 160 l 454 160 l 290 -4 l -7 -4 l -7 750 l 246 1003 l 871 1003 l 871 250 m 844 989 l 251 989 l 17 754 l 610 754 l 694 840 l 383 840 l 463 918 l 775 918 l 844 989 m 771 904 l 472 904 l 472 854 l 719 854 l 719 708 l 614 604 l 458 604 l 458 174 l 771 174 l 771 904 m 606 618 l 606 740 l 7 740 l 7 10 l 281 10 l 281 618 l 606 618 z "},"G":{"ha":1051,"x_min":-7,"x_max":989,"o":"m 989 247 l 903 161 l 815 161 l 815 101 l 711 -4 l -7 -4 l -7 750 l 246 1003 l 989 1003 l 989 247 m 819 840 l 521 840 l 435 754 l 735 754 l 819 840 m 967 989 l 253 989 l 17 754 l 293 754 l 460 921 l 897 921 l 967 989 m 893 175 l 893 907 l 471 907 l 469 808 l 515 854 l 844 854 l 844 710 l 815 681 l 815 175 l 893 175 m 729 618 l 729 740 l 424 740 l 424 247 l 289 247 l 289 740 l 7 740 l 7 10 l 701 10 l 700 618 l 729 618 m 410 263 l 410 358 l 314 263 l 410 263 z "},"H":{"ha":1025,"x_min":-7,"x_max":964,"o":"m 964 1003 l 963 249 l 711 -4 l 396 -4 l 394 104 l 286 -4 l 281 -4 l -7 -3 l -7 750 l 246 1003 l 528 1003 l 529 892 l 639 1003 l 964 1003 m 938 989 l 644 989 l 479 824 l 336 824 l 501 989 l 251 989 l 17 754 l 704 754 l 938 989 m 700 10 l 700 740 l 7 740 l 7 10 l 274 10 l 274 617 l 408 617 l 408 10 l 700 10 z "},"I":{"ha":621,"x_min":-7,"x_max":558,"o":"m 558 251 l 303 -4 l -7 -4 l -7 749 l 249 1003 l 558 1003 l 558 251 m 533 989 l 254 989 l 17 753 l 296 753 l 533 989 m 293 10 l 293 739 l 7 739 l 7 10 l 293 10 z "},"J":{"ha":932,"x_min":-7,"x_max":869,"o":"m 869 250 l 615 -4 l -7 -4 l -7 276 l 247 531 l 307 531 l 307 750 l 558 1001 l 869 1001 l 869 250 m 844 988 l 564 988 l 331 754 l 610 754 l 844 988 m 606 10 l 606 740 l 321 740 l 321 268 l 7 267 l 7 10 l 606 10 m 307 281 l 307 517 l 253 517 l 17 281 l 307 281 z "},"K":{"ha":1025,"x_min":-7,"x_max":963,"o":"m 963 249 l 710 -4 l 410 -4 l 410 106 l 300 -4 l -6 -4 l -7 750 l 246 1003 l 528 1003 l 528 893 l 638 1003 l 867 1003 l 867 906 l 963 906 l 963 249 m 938 892 l 861 892 l 626 657 l 704 657 l 938 892 m 839 989 l 643 989 l 478 824 l 339 824 l 504 989 l 251 989 l 17 754 l 607 754 l 839 989 m 700 10 l 700 643 l 603 643 l 603 740 l 7 740 l 7 10 l 289 10 l 289 618 l 424 618 l 424 10 l 700 10 z "},"L":{"ha":931,"x_min":-7,"x_max":868,"o":"m 868 529 l 868 247 l 615 -6 l -7 -6 l -7 750 l 246 1003 l 554 1003 l 554 529 l 868 529 m 531 989 l 251 989 l 17 754 l 297 754 l 531 989 m 844 515 l 550 515 l 315 279 l 610 279 l 844 515 m 606 8 l 606 265 l 293 265 l 293 740 l 7 740 l 7 8 l 606 8 z "},"M":{"ha":1425,"x_min":-7,"x_max":1363,"o":"m 1363 251 l 1110 -1 l 819 -1 l 819 121 l 697 -1 l 407 -1 l 407 122 l 283 -1 l -7 -1 l -7 751 l 247 1004 l 1363 1003 l 1363 251 m 975 907 l 867 907 l 867 797 l 975 907 m 1339 989 l 250 990 l 17 756 l 278 756 l 440 918 l 593 918 l 431 756 l 690 756 l 856 921 l 1010 921 l 843 756 l 1103 756 l 1339 989 m 561 904 l 450 904 l 450 793 l 561 904 m 1100 13 l 1100 742 l 833 742 l 833 11 l 1100 13 m 686 11 l 686 742 l 421 742 l 421 13 l 686 11 m 274 13 l 274 742 l 7 742 l 7 13 l 274 13 z "},"N":{"ha":1013,"x_min":-7,"x_max":950,"o":"m 950 1003 l 949 249 l 696 -4 l 406 -4 l 406 115 l 283 -4 l -7 -4 l -7 750 l 246 1003 l 950 1003 m 561 904 l 450 904 l 450 793 l 561 904 m 926 989 l 251 989 l 17 754 l 275 754 l 439 918 l 593 918 l 429 754 l 690 754 l 926 989 m 686 740 l 421 740 l 421 10 l 686 10 l 686 740 m 271 10 l 271 740 l 7 740 l 7 10 l 271 10 z "},"O":{"ha":1025,"x_min":-7,"x_max":963,"o":"m 963 247 l 711 -4 l -7 -6 l -7 751 l 246 1003 l 963 1003 l 963 247 m 571 903 l 468 903 l 468 799 l 571 903 m 939 989 l 251 989 l 18 754 l 297 754 l 458 917 l 604 917 l 442 754 l 704 756 l 939 989 m 700 8 l 700 742 l 432 740 l 433 229 l 292 229 l 292 740 l 7 740 l 7 8 l 700 8 m 419 243 l 419 346 l 315 243 l 419 243 z "},"P":{"ha":1028,"x_min":-7,"x_max":964,"o":"m 964 693 l 713 440 l 557 440 l 557 249 l 304 -4 l -7 -4 l -7 750 l 247 1003 l 964 1003 l 964 693 m 557 906 l 472 906 l 472 819 l 557 906 m 942 989 l 251 989 l 17 754 l 297 754 l 463 919 l 590 919 l 426 754 l 707 754 l 942 989 m 401 597 l 401 681 l 318 597 l 401 597 m 703 454 l 703 740 l 415 740 l 415 583 l 293 583 l 293 740 l 7 740 l 7 10 l 294 10 l 294 454 l 703 454 z "},"Q":{"ha":1199,"x_min":-7,"x_max":1136,"o":"m 1136 246 l 886 -4 l -7 -4 l -7 751 l 244 1003 l 960 1003 l 960 513 l 1136 513 l 1136 246 m 571 910 l 471 910 l 471 811 l 571 910 m 936 989 l 250 989 l 17 756 l 296 757 l 461 922 l 603 924 l 436 757 l 704 757 l 936 989 m 1113 499 l 956 499 l 724 267 l 879 267 l 1113 499 m 876 10 l 876 253 l 700 253 l 700 742 l 426 743 l 426 232 l 292 232 l 292 743 l 7 742 l 7 10 l 876 10 m 414 246 l 414 343 l 315 246 l 414 246 z "},"R":{"ha":1031,"x_min":-7,"x_max":968,"o":"m 967 251 l 713 -4 l 407 -4 l 407 106 l 299 -4 l -7 -4 l -7 750 l 246 1003 l 871 1003 l 871 904 l 968 904 l 967 251 m 943 890 l 867 890 l 632 656 l 707 656 l 943 890 m 847 989 l 251 989 l 17 754 l 613 754 l 847 989 m 703 11 l 703 642 l 608 642 l 608 740 l 7 740 l 7 10 l 286 10 l 286 604 l 421 604 l 421 10 l 703 11 m 590 918 l 513 840 l 396 840 l 471 918 l 590 918 m 557 904 l 482 904 l 482 854 l 507 854 l 557 904 z "},"S":{"ha":1018,"x_min":-7,"x_max":956,"o":"m 956 249 l 867 160 l 807 160 l 807 101 l 703 -4 l -7 -4 l -7 263 l 97 365 l 157 365 l 157 424 l 247 513 l 406 513 l 406 604 l -7 604 l -7 750 l 246 1003 l 956 1003 l 956 249 m 932 989 l 251 989 l 17 754 l 697 754 l 785 840 l 383 840 l 461 918 l 863 918 l 932 989 m 858 904 l 471 904 l 471 854 l 808 854 l 808 174 l 858 174 l 858 904 m 407 428 l 407 499 l 251 499 l 182 428 l 407 428 m 693 10 l 693 740 l 7 740 l 7 618 l 419 618 l 419 253 l 7 253 l 7 10 l 693 10 m 406 365 l 406 414 l 171 414 l 171 365 l 406 365 m 406 351 l 103 351 l 17 265 l 406 267 l 406 351 z "},"T":{"ha":757,"x_min":-7,"x_max":694,"o":"m 694 247 l 582 136 l 442 136 l 303 -4 l -7 -4 l -7 889 l 106 1003 l 694 1003 l 694 247 m 671 989 l 111 989 l 17 893 l 157 894 l 17 754 l 297 754 l 436 893 l 575 893 l 671 989 m 572 150 l 572 879 l 446 879 l 446 150 l 572 150 m 122 879 l 7 879 l 7 764 l 122 879 m 293 10 l 293 740 l 7 740 l 7 10 l 293 10 z "},"U":{"ha":1024,"x_min":-7,"x_max":961,"o":"m 961 1004 l 961 243 l 714 -4 l -7 -4 l -7 751 l 244 1004 l 554 1003 l 553 893 l 664 1004 l 961 1004 m 938 990 l 671 990 l 436 756 l 703 756 l 938 990 m 531 990 l 251 990 l 17 756 l 296 756 l 531 990 m 700 10 l 700 742 l 426 742 l 428 231 l 292 231 l 292 742 l 7 742 l 7 10 l 700 10 m 414 244 l 414 342 l 315 244 l 414 244 z "},"V":{"ha":1011,"x_min":-7,"x_max":949,"o":"m 949 250 l 696 -3 l 251 -4 l -7 254 l -7 750 l 246 1003 l 535 1003 l 535 879 l 658 1003 l 949 1004 l 949 250 m 925 990 l 665 989 l 431 754 l 690 756 l 925 990 m 511 989 l 251 989 l 17 754 l 278 754 l 511 989 m 686 11 l 686 742 l 421 740 l 421 229 l 274 229 l 274 740 l 7 740 l 7 260 l 256 10 l 686 11 m 407 243 l 407 353 l 297 243 l 407 243 z "},"W":{"ha":1426,"x_min":-7,"x_max":1364,"o":"m 1364 251 l 1110 -4 l 251 -4 l -7 254 l -7 750 l 246 1003 l 535 1001 l 535 879 l 658 1003 l 949 1001 l 949 881 l 1072 1003 l 1364 1003 l 1364 251 m 1335 990 l 1078 989 l 843 754 l 1100 756 l 1335 990 m 925 989 l 664 989 l 431 754 l 690 754 l 925 989 m 511 989 l 251 989 l 17 754 l 278 754 l 511 989 m 819 244 l 819 354 l 710 244 l 819 244 m 1100 11 l 1100 742 l 833 742 l 833 231 l 686 231 l 686 740 l 421 740 l 421 229 l 274 229 l 274 740 l 7 740 l 7 260 l 256 10 l 1100 11 m 407 243 l 407 353 l 297 243 l 407 243 z "},"X":{"ha":1028,"x_min":-7,"x_max":965,"o":"m 965 250 l 711 -4 l 406 -4 l 406 104 l 296 -4 l -7 -4 l -7 653 q 344 1004 107 767 l 567 1004 l 565 913 l 654 1003 l 868 1003 l 868 904 l 964 904 l 965 250 m 940 890 l 864 890 l 629 656 l 704 656 l 940 890 m 844 989 l 660 989 q 513 840 564 894 l 392 840 l 542 990 l 351 990 l 115 754 l 610 754 l 844 989 m 89 656 l 88 726 l 17 656 l 89 656 m 700 10 l 700 642 l 606 642 l 606 740 l 103 740 l 103 642 l 7 642 l 7 10 l 285 10 l 285 618 l 419 618 l 419 10 l 700 10 z "},"Y":{"ha":1015,"x_min":-7,"x_max":953,"o":"m 953 849 l 743 639 l 743 250 l 486 -4 l 178 -4 l 178 401 l -7 585 l -6 751 l 246 1003 l 539 1003 l 538 878 l 664 1003 l 953 1004 l 953 849 m 929 990 l 669 989 l 433 754 l 694 756 l 929 990 m 513 989 l 251 989 l 18 754 l 279 756 l 513 989 m 410 603 l 410 713 l 300 603 l 410 603 m 689 604 l 689 742 l 424 740 l 424 589 l 275 589 l 275 742 l 7 740 l 8 589 l 192 407 l 192 10 l 476 10 l 476 393 l 689 604 z "},"Z":{"ha":789,"x_min":-7,"x_max":726,"o":"m 726 531 l 726 250 l 474 -4 l -7 -4 l -7 910 l 86 1003 l 554 1001 l 554 531 l 726 531 m 529 988 l 92 989 l 21 918 l 182 918 l 18 754 l 296 754 l 529 988 m 150 904 l 7 904 l 7 763 l 150 904 m 701 517 l 550 517 l 317 282 l 467 281 l 701 517 m 463 10 l 463 267 l 293 267 l 293 740 l 7 740 l 7 10 l 463 10 z "},"[":{"ha":693,"x_min":0,"x_max":624,"o":"m 631 -1 l 378 -254 l 238 -254 l -7 -10 l -7 896 l 244 1147 l 631 1147 l 631 -1 m 604 1133 l 251 1133 l 17 900 l 214 900 l 378 1065 l 538 1065 l 604 1133 m 533 176 l 533 1051 l 385 1051 l 386 176 l 533 176 m 368 -240 l 368 -1 l 210 -1 l 210 886 l 7 886 l 7 -3 l 244 -240 l 368 -240 m 524 163 l 382 163 l 233 13 l 372 13 l 524 163 z "},"\\":{"ha":971,"x_min":-8,"x_max":910,"o":"m 910 256 l 651 -4 l 344 -4 l -8 750 l 244 1004 l 550 1004 l 910 256 m 529 990 l 250 990 l 17 756 l 296 756 l 529 990 m 638 10 l 294 742 l 11 742 l 354 10 l 638 10 z "},"]":{"ha":692,"x_min":0,"x_max":622,"o":"m 629 235 l 139 -254 l -4 -254 l -6 11 l 151 168 l 151 1061 l 238 1147 l 629 1147 l 629 235 m 606 1133 l 244 1133 l 176 1065 l 340 1065 l 175 901 l 374 901 l 606 1133 m 306 1051 l 165 1051 l 165 911 l 306 1051 m 369 -4 l 369 888 l 165 888 l 165 1 l 7 1 l 7 -240 l 133 -240 l 369 -4 m 151 149 l 17 15 l 151 15 l 151 149 z "},"^":{"ha":928,"x_min":1,"x_max":865,"o":"m 865 383 l 554 383 l 554 510 l 300 383 l 1 383 l 1 625 l 494 869 l 864 869 l 865 383 m 851 397 l 851 610 l 568 610 l 568 397 l 851 397 m 851 856 l 499 856 l 29 624 l 299 621 l 568 757 l 568 624 l 851 624 l 851 856 m 293 607 l 15 607 l 15 397 l 292 397 l 293 607 z "},"_":{"ha":1060,"x_min":-7,"x_max":997,"o":"m 997 247 l 747 -4 l -7 -4 l -7 753 l 244 1003 l 997 1003 l 997 247 m 974 989 l 249 989 l 17 757 l 740 757 l 974 989 m 738 10 l 738 743 l 7 743 l 7 10 l 738 10 z "},"`":{"ha":472,"x_min":-7,"x_max":410,"o":"m 410 989 l -7 989 l -7 1035 l 104 1146 l 408 1069 l 410 989 m 388 1061 l 108 1132 l 17 1039 l 368 1039 l 388 1061 m 363 1003 l 363 1025 l 7 1025 l 7 1003 l 363 1003 z "},"a":{"ha":1026,"x_min":0,"x_max":957,"o":"m 964 247 l 713 -4 l 406 -4 l 406 104 l 296 -4 l -7 -4 l -7 651 l 342 1003 l 867 1003 l 867 903 l 964 903 l 964 247 m 940 889 l 863 889 l 628 654 l 706 654 l 940 889 m 844 989 l 347 989 l 113 754 l 610 754 l 844 989 m 89 726 l 17 656 l 89 656 l 89 726 m 701 10 l 701 640 l 606 640 l 606 740 l 101 740 l 103 642 l 7 642 l 7 10 l 285 10 l 285 618 l 419 618 l 419 10 l 701 10 m 590 918 l 511 840 l 392 840 l 471 919 l 590 918 m 557 904 l 479 904 l 479 854 l 504 854 l 557 904 z "},"b":{"ha":1026,"x_min":0,"x_max":957,"o":"m 964 249 l 713 -4 l -7 -4 l -7 750 l 246 1003 l 868 1003 l 868 906 l 964 906 l 964 249 m 940 892 l 864 892 l 629 657 l 707 657 l 940 892 m 844 989 l 251 989 l 17 754 l 610 754 l 844 989 m 703 10 l 703 643 l 606 643 l 606 740 l 7 740 l 7 10 l 703 10 m 583 921 l 503 843 l 385 843 l 464 922 l 583 921 m 414 251 l 281 251 l 281 617 l 414 617 l 414 251 m 550 907 l 471 908 l 471 857 l 500 857 l 550 907 m 401 265 l 401 361 l 306 265 l 401 265 z "},"c":{"ha":908,"x_min":0,"x_max":839,"o":"m 846 246 l 597 -4 l 240 -4 l -7 243 l -7 751 l 244 1003 l 846 1003 l 846 246 m 822 989 l 251 989 l 17 756 l 282 756 l 451 921 l 756 921 l 822 989 m 751 431 l 751 907 l 461 907 l 460 431 l 751 431 m 742 417 l 457 417 l 306 265 l 590 267 l 742 417 m 588 10 l 586 253 l 278 251 l 278 742 l 7 742 l 7 249 l 247 10 l 588 10 z "},"d":{"ha":935,"x_min":0,"x_max":865,"o":"m 872 903 l 872 254 l 614 -4 l -7 -4 l -7 750 l 244 1003 l 774 1003 l 872 903 m 560 906 l 463 906 l 463 808 l 560 906 m 853 903 l 769 989 l 251 989 l 17 754 l 285 754 l 450 919 l 590 919 l 426 754 l 707 754 l 853 903 m 703 104 l 703 740 l 415 740 l 415 251 l 281 251 l 281 740 l 7 740 l 7 10 l 608 10 l 703 104 m 401 265 l 401 361 l 306 265 l 401 265 z "},"e":{"ha":929,"x_min":0,"x_max":860,"o":"m 867 247 l 615 -4 l -7 -4 l -7 750 l 246 1003 l 867 1003 l 867 247 m 843 989 l 251 989 l 17 754 l 613 754 l 699 840 l 385 840 l 463 918 l 774 918 l 843 989 m 768 429 l 768 904 l 472 904 l 472 854 l 724 854 l 724 710 l 618 604 l 458 604 l 458 429 l 768 429 m 760 415 l 454 417 l 304 265 l 610 265 l 760 415 m 608 618 l 608 740 l 7 740 l 7 10 l 606 10 l 606 251 l 281 251 l 281 618 l 608 618 z "},"f":{"ha":933,"x_min":0,"x_max":864,"o":"m 871 250 l 782 163 l 785 168 l 785 160 l 454 160 l 290 -4 l -7 -4 l -7 750 l 246 1003 l 871 1003 l 871 250 m 844 989 l 251 989 l 17 754 l 610 754 l 694 840 l 383 840 l 463 918 l 775 918 l 844 989 m 771 904 l 472 904 l 472 854 l 719 854 l 719 708 l 614 604 l 458 604 l 458 174 l 771 174 l 771 904 m 606 618 l 606 740 l 7 740 l 7 10 l 281 10 l 281 618 l 606 618 z "},"g":{"ha":1051,"x_min":0,"x_max":982,"o":"m 989 247 l 903 161 l 815 161 l 815 101 l 711 -4 l -7 -4 l -7 750 l 246 1003 l 989 1003 l 989 247 m 819 840 l 521 840 l 435 754 l 735 754 l 819 840 m 967 989 l 253 989 l 17 754 l 293 754 l 460 921 l 897 921 l 967 989 m 893 175 l 893 907 l 471 907 l 469 808 l 515 854 l 844 854 l 844 710 l 815 681 l 815 175 l 893 175 m 729 618 l 729 740 l 424 740 l 424 247 l 289 247 l 289 740 l 7 740 l 7 10 l 701 10 l 700 618 l 729 618 m 410 263 l 410 358 l 314 263 l 410 263 z "},"h":{"ha":1025,"x_min":0,"x_max":956,"o":"m 964 1003 l 963 249 l 711 -4 l 396 -4 l 394 104 l 286 -4 l 281 -4 l -7 -3 l -7 750 l 246 1003 l 528 1003 l 529 892 l 639 1003 l 964 1003 m 938 989 l 644 989 l 479 824 l 336 824 l 501 989 l 251 989 l 17 754 l 704 754 l 938 989 m 700 10 l 700 740 l 7 740 l 7 10 l 274 10 l 274 617 l 408 617 l 408 10 l 700 10 z "},"i":{"ha":618,"x_min":0,"x_max":549,"o":"m 558 251 l 303 -4 l -7 -4 l -7 749 l 249 1003 l 558 1003 l 558 251 m 533 989 l 254 989 l 17 753 l 296 753 l 533 989 m 293 10 l 293 739 l 7 739 l 7 10 l 293 10 z "},"j":{"ha":932,"x_min":0,"x_max":863,"o":"m 869 250 l 615 -4 l -7 -4 l -7 276 l 247 531 l 307 531 l 307 750 l 558 1001 l 869 1001 l 869 250 m 844 988 l 564 988 l 331 754 l 610 754 l 844 988 m 606 10 l 606 740 l 321 740 l 321 268 l 7 267 l 7 10 l 606 10 m 307 281 l 307 517 l 253 517 l 17 281 l 307 281 z "},"k":{"ha":1025,"x_min":0,"x_max":956,"o":"m 963 249 l 710 -4 l 410 -4 l 410 106 l 300 -4 l -6 -4 l -7 750 l 246 1003 l 528 1003 l 528 893 l 638 1003 l 867 1003 l 867 906 l 963 906 l 963 249 m 938 892 l 861 892 l 626 657 l 704 657 l 938 892 m 839 989 l 643 989 l 478 824 l 339 824 l 504 989 l 251 989 l 17 754 l 607 754 l 839 989 m 700 10 l 700 643 l 603 643 l 603 740 l 7 740 l 7 10 l 289 10 l 289 618 l 424 618 l 424 10 l 700 10 z "},"l":{"ha":931,"x_min":0,"x_max":861,"o":"m 868 529 l 868 247 l 615 -6 l -7 -6 l -7 750 l 246 1003 l 554 1003 l 554 529 l 868 529 m 531 989 l 251 989 l 17 754 l 297 754 l 531 989 m 844 515 l 550 515 l 315 279 l 610 279 l 844 515 m 606 8 l 606 265 l 293 265 l 293 740 l 7 740 l 7 8 l 606 8 z "},"m":{"ha":1425,"x_min":0,"x_max":1356,"o":"m 1363 251 l 1110 -1 l 819 -1 l 819 121 l 697 -1 l 407 -1 l 407 122 l 283 -1 l -7 -1 l -7 751 l 247 1004 l 1363 1003 l 1363 251 m 975 907 l 867 907 l 867 797 l 975 907 m 1339 989 l 250 990 l 17 756 l 278 756 l 440 918 l 593 918 l 431 756 l 690 756 l 856 921 l 1010 921 l 843 756 l 1103 756 l 1339 989 m 561 904 l 450 904 l 450 793 l 561 904 m 1100 13 l 1100 742 l 833 742 l 833 11 l 1100 13 m 686 11 l 686 742 l 421 742 l 421 13 l 686 11 m 274 13 l 274 742 l 7 742 l 7 13 l 274 13 z "},"n":{"ha":1013,"x_min":0,"x_max":943,"o":"m 950 1003 l 949 249 l 696 -4 l 406 -4 l 406 115 l 283 -4 l -7 -4 l -7 750 l 246 1003 l 950 1003 m 561 904 l 450 904 l 450 793 l 561 904 m 926 989 l 251 989 l 17 754 l 275 754 l 439 918 l 593 918 l 429 754 l 690 754 l 926 989 m 686 740 l 421 740 l 421 10 l 686 10 l 686 740 m 271 10 l 271 740 l 7 740 l 7 10 l 271 10 z "},"o":{"ha":1022,"x_min":0,"x_max":953,"o":"m 963 247 l 711 -4 l -7 -6 l -7 751 l 246 1003 l 963 1003 l 963 247 m 571 903 l 468 903 l 468 799 l 571 903 m 939 989 l 251 989 l 18 754 l 297 754 l 458 917 l 604 917 l 442 754 l 704 756 l 939 989 m 700 8 l 700 742 l 432 740 l 433 229 l 292 229 l 292 740 l 7 740 l 7 8 l 700 8 m 419 243 l 419 346 l 315 243 l 419 243 z "},"p":{"ha":1028,"x_min":0,"x_max":958,"o":"m 964 693 l 713 440 l 557 440 l 557 249 l 304 -4 l -7 -4 l -7 750 l 247 1003 l 964 1003 l 964 693 m 557 906 l 472 906 l 472 819 l 557 906 m 942 989 l 251 989 l 17 754 l 297 754 l 463 919 l 590 919 l 426 754 l 707 754 l 942 989 m 401 597 l 401 681 l 318 597 l 401 597 m 703 454 l 703 740 l 415 740 l 415 583 l 293 583 l 293 740 l 7 740 l 7 10 l 294 10 l 294 454 l 703 454 z "},"q":{"ha":1199,"x_min":0,"x_max":1129,"o":"m 1136 246 l 886 -4 l -7 -4 l -7 751 l 244 1003 l 960 1003 l 960 513 l 1136 513 l 1136 246 m 571 910 l 471 910 l 471 811 l 571 910 m 936 989 l 250 989 l 17 756 l 296 757 l 461 922 l 603 924 l 436 757 l 704 757 l 936 989 m 1113 499 l 956 499 l 724 267 l 879 267 l 1113 499 m 876 10 l 876 253 l 700 253 l 700 742 l 426 743 l 426 232 l 292 232 l 292 743 l 7 742 l 7 10 l 876 10 m 414 246 l 414 343 l 315 246 l 414 246 z "},"r":{"ha":1031,"x_min":0,"x_max":961,"o":"m 967 251 l 713 -4 l 407 -4 l 407 106 l 299 -4 l -7 -4 l -7 750 l 246 1003 l 871 1003 l 871 904 l 968 904 l 967 251 m 943 890 l 867 890 l 632 656 l 707 656 l 943 890 m 847 989 l 251 989 l 17 754 l 613 754 l 847 989 m 703 11 l 703 642 l 608 642 l 608 740 l 7 740 l 7 10 l 286 10 l 286 604 l 421 604 l 421 10 l 703 11 m 590 918 l 513 840 l 396 840 l 471 918 l 590 918 m 557 904 l 482 904 l 482 854 l 507 854 l 557 904 z "},"s":{"ha":1018,"x_min":0,"x_max":949,"o":"m 956 249 l 867 160 l 807 160 l 807 101 l 703 -4 l -7 -4 l -7 263 l 97 365 l 157 365 l 157 424 l 247 513 l 406 513 l 406 604 l -7 604 l -7 750 l 246 1003 l 956 1003 l 956 249 m 932 989 l 251 989 l 17 754 l 697 754 l 785 840 l 383 840 l 461 918 l 863 918 l 932 989 m 858 904 l 471 904 l 471 854 l 808 854 l 808 174 l 858 174 l 858 904 m 407 428 l 407 499 l 251 499 l 182 428 l 407 428 m 693 10 l 693 740 l 7 740 l 7 618 l 419 618 l 419 253 l 7 253 l 7 10 l 693 10 m 406 365 l 406 414 l 171 414 l 171 365 l 406 365 m 406 351 l 103 351 l 17 265 l 406 267 l 406 351 z "},"t":{"ha":757,"x_min":0,"x_max":688,"o":"m 694 247 l 582 136 l 442 136 l 303 -4 l -7 -4 l -7 889 l 106 1003 l 694 1003 l 694 247 m 671 989 l 111 989 l 17 893 l 157 894 l 17 754 l 297 754 l 436 893 l 575 893 l 671 989 m 572 150 l 572 879 l 446 879 l 446 150 l 572 150 m 122 879 l 7 879 l 7 764 l 122 879 m 293 10 l 293 740 l 7 740 l 7 10 l 293 10 z "},"u":{"ha":1024,"x_min":0,"x_max":954,"o":"m 961 1004 l 961 243 l 714 -4 l -7 -4 l -7 751 l 244 1004 l 554 1003 l 553 893 l 664 1004 l 961 1004 m 938 990 l 671 990 l 436 756 l 703 756 l 938 990 m 531 990 l 251 990 l 17 756 l 296 756 l 531 990 m 700 10 l 700 742 l 426 742 l 428 231 l 292 231 l 292 742 l 7 742 l 7 10 l 700 10 m 414 244 l 414 342 l 315 244 l 414 244 z "},"v":{"ha":1011,"x_min":0,"x_max":942,"o":"m 949 250 l 696 -3 l 251 -4 l -7 254 l -7 750 l 246 1003 l 535 1003 l 535 879 l 658 1003 l 949 1004 l 949 250 m 925 990 l 665 989 l 431 754 l 690 756 l 925 990 m 511 989 l 251 989 l 17 754 l 278 754 l 511 989 m 686 11 l 686 742 l 421 740 l 421 229 l 274 229 l 274 740 l 7 740 l 7 260 l 256 10 l 686 11 m 407 243 l 407 353 l 297 243 l 407 243 z "},"w":{"ha":1426,"x_min":0,"x_max":1357,"o":"m 1364 251 l 1110 -4 l 251 -4 l -7 254 l -7 750 l 246 1003 l 535 1001 l 535 879 l 658 1003 l 949 1001 l 949 881 l 1072 1003 l 1364 1003 l 1364 251 m 1335 990 l 1078 989 l 843 754 l 1100 756 l 1335 990 m 925 989 l 664 989 l 431 754 l 690 754 l 925 989 m 511 989 l 251 989 l 17 754 l 278 754 l 511 989 m 819 244 l 819 354 l 710 244 l 819 244 m 1100 11 l 1100 742 l 833 742 l 833 231 l 686 231 l 686 740 l 421 740 l 421 229 l 274 229 l 274 740 l 7 740 l 7 260 l 256 10 l 1100 11 m 407 243 l 407 353 l 297 243 l 407 243 z "},"x":{"ha":1028,"x_min":0,"x_max":958,"o":"m 965 250 l 711 -4 l 406 -4 l 406 104 l 296 -4 l -7 -4 l -7 653 q 344 1004 107 767 l 567 1004 l 565 913 l 654 1003 l 868 1003 l 868 904 l 964 904 l 965 250 m 940 890 l 864 890 l 629 656 l 704 656 l 940 890 m 844 989 l 660 989 q 513 840 564 894 l 392 840 l 542 990 l 351 990 l 115 754 l 610 754 l 844 989 m 89 656 l 88 726 l 17 656 l 89 656 m 700 10 l 700 642 l 606 642 l 606 740 l 103 740 l 103 642 l 7 642 l 7 10 l 285 10 l 285 618 l 419 618 l 419 10 l 700 10 z "},"y":{"ha":1015,"x_min":0,"x_max":946,"o":"m 953 849 l 743 639 l 743 250 l 486 -4 l 178 -4 l 178 401 l -7 585 l -6 751 l 246 1003 l 539 1003 l 538 878 l 664 1003 l 953 1004 l 953 849 m 929 990 l 669 989 l 433 754 l 694 756 l 929 990 m 513 989 l 251 989 l 18 754 l 279 756 l 513 989 m 410 603 l 410 713 l 300 603 l 410 603 m 689 604 l 689 742 l 424 740 l 424 589 l 275 589 l 275 742 l 7 740 l 8 589 l 192 407 l 192 10 l 476 10 l 476 393 l 689 604 z "},"z":{"ha":789,"x_min":0,"x_max":719,"o":"m 726 531 l 726 250 l 474 -4 l -7 -4 l -7 910 l 86 1003 l 554 1001 l 554 531 l 726 531 m 529 988 l 92 989 l 21 918 l 182 918 l 18 754 l 296 754 l 529 988 m 150 904 l 7 904 l 7 763 l 150 904 m 701 517 l 550 517 l 317 282 l 467 281 l 701 517 m 463 10 l 463 267 l 293 267 l 293 740 l 7 740 l 7 10 l 463 10 z "},"{":{"ha":693,"x_min":0,"x_max":624,"o":"m 631 -1 l 378 -254 l 238 -254 l -7 -10 l -7 896 l 244 1147 l 631 1147 l 631 -1 m 604 1133 l 251 1133 l 17 900 l 214 900 l 378 1065 l 538 1065 l 604 1133 m 533 176 l 533 1051 l 385 1051 l 386 176 l 533 176 m 368 -240 l 368 -1 l 210 -1 l 210 886 l 7 886 l 7 -3 l 244 -240 l 368 -240 m 524 163 l 382 163 l 233 13 l 372 13 l 524 163 z "},"|":{"ha":621,"x_min":-7,"x_max":558,"o":"m 558 3 l 303 -254 l -7 -254 l -7 892 l 249 1146 l 558 1146 l 558 3 m 535 1132 l 254 1132 l 17 896 l 296 896 l 535 1132 m 293 -240 l 293 882 l 7 882 l 7 -240 l 293 -240 z "},"}":{"ha":692,"x_min":0,"x_max":622,"o":"m 629 235 l 139 -254 l -4 -254 l -6 11 l 151 168 l 151 1061 l 238 1147 l 629 1147 l 629 235 m 606 1133 l 244 1133 l 176 1065 l 340 1065 l 175 901 l 374 901 l 606 1133 m 306 1051 l 165 1051 l 165 911 l 306 1051 m 369 -4 l 369 888 l 165 888 l 165 1 l 7 1 l 7 -240 l 133 -240 l 369 -4 m 151 149 l 17 15 l 151 15 l 151 149 z "},"~":{"ha":1172,"x_min":-7,"x_max":1110,"o":"m 1110 636 l 853 381 l 554 381 l 422 511 l 294 383 l -7 383 l -7 619 l 243 869 l 604 869 l 707 767 l 811 869 l 1110 869 l 1110 636 m 1085 857 l 819 856 l 707 746 l 599 856 l 251 856 l 17 624 l 288 624 l 422 757 l 560 619 l 847 619 l 1085 857 m 844 606 l 564 606 l 564 394 l 843 394 l 844 606 m 550 404 l 550 610 l 429 731 l 429 525 l 550 404 m 285 397 l 283 610 l 7 610 l 7 397 l 285 397 z "},"Ä":{"ha":1026,"x_min":0,"x_max":957,"o":"m 964 247 l 713 -4 l 406 -4 l 406 104 l 296 -4 l -7 -4 l -7 651 l 342 1003 l 867 1003 l 867 903 l 964 903 l 964 247 m 940 889 l 863 889 l 628 654 l 706 654 l 940 889 m 844 989 l 347 989 l 113 754 l 610 754 l 844 989 m 89 726 l 17 656 l 89 656 l 89 726 m 701 10 l 701 640 l 606 640 l 606 740 l 101 740 l 103 642 l 7 642 l 7 10 l 285 10 l 285 618 l 419 618 l 419 10 l 701 10 m 590 918 l 511 840 l 392 840 l 471 919 l 590 918 m 557 904 l 479 904 l 479 854 l 504 854 l 557 904 m 867 989 l 378 989 l 378 1038 l 488 1147 l 628 1147 l 628 1047 l 726 1147 l 867 1147 l 867 989 m 843 1133 l 732 1133 l 642 1042 l 751 1042 l 843 1133 m 747 1003 l 747 1028 l 628 1028 l 628 1003 l 747 1003 m 604 1133 l 493 1133 l 401 1042 l 514 1042 l 604 1133 m 510 1003 l 510 1028 l 392 1028 l 392 1003 l 510 1003 z "},"Å":{"ha":1026,"x_min":0,"x_max":957,"o":"m 964 247 l 713 -4 l 406 -4 l 406 104 l 296 -4 l -7 -4 l -7 651 l 342 1003 l 867 1003 l 867 903 l 964 903 l 964 247 m 940 889 l 863 889 l 628 654 l 706 654 l 940 889 m 844 989 l 347 989 l 113 754 l 610 754 l 844 989 m 89 726 l 17 656 l 89 656 l 89 726 m 701 10 l 701 640 l 606 640 l 606 740 l 101 740 l 103 642 l 7 642 l 7 10 l 285 10 l 285 618 l 419 618 l 419 10 l 701 10 m 590 918 l 511 840 l 392 840 l 471 919 l 590 918 m 557 904 l 479 904 l 479 854 l 504 854 l 557 904 m 831 989 l 465 989 l 465 1039 l 575 1149 l 831 1149 l 831 989 m 807 1135 l 582 1135 l 489 1043 l 715 1043 l 807 1135 m 711 1003 l 711 1029 l 479 1029 l 479 1003 l 711 1003 m 724 1117 l 671 1064 l 572 1064 l 624 1117 l 724 1117 m 690 1103 l 633 1103 l 633 1078 l 665 1078 l 690 1103 z "},"Ç":{"ha":908,"x_min":-7,"x_max":846,"o":"m 846 251 l 707 113 l 707 -22 l 478 -251 l 233 -251 l 233 -112 l 347 1 l 238 1 l -7 244 l -7 751 l 243 1003 l 846 1003 l 846 251 m 822 989 l 251 989 l 17 756 l 282 756 l 444 919 l 753 919 l 822 989 m 747 433 l 747 906 l 454 906 l 454 433 l 747 433 m 738 419 l 450 419 l 303 272 l 589 272 l 738 419 m 585 15 l 585 258 l 279 258 l 279 742 l 7 742 l 7 250 l 243 15 l 361 15 l 361 -124 l 247 -124 l 247 -237 l 465 -237 l 465 15 l 585 15 m 347 -110 l 349 -17 l 257 -110 l 347 -110 z "},"É":{"ha":929,"x_min":0,"x_max":860,"o":"m 867 247 l 615 -4 l -7 -4 l -7 750 l 246 1003 l 867 1003 l 867 247 m 843 989 l 251 989 l 17 754 l 613 754 l 699 840 l 385 840 l 463 918 l 774 918 l 843 989 m 768 429 l 768 904 l 472 904 l 472 854 l 724 854 l 724 710 l 618 604 l 458 604 l 458 429 l 768 429 m 760 415 l 454 417 l 304 265 l 610 265 l 760 415 m 608 618 l 608 740 l 7 740 l 7 10 l 606 10 l 606 251 l 281 251 l 281 618 l 608 618 m 864 989 l 375 989 l 375 1035 l 414 1075 l 864 1149 l 864 989 m 838 1131 l 421 1063 l 399 1039 l 747 1040 l 838 1131 m 744 1003 l 744 1026 l 389 1025 l 389 1003 l 744 1003 z "},"Ñ":{"ha":1013,"x_min":0,"x_max":943,"o":"m 950 1003 l 949 249 l 696 -4 l 406 -4 l 406 115 l 283 -4 l -7 -4 l -7 750 l 246 1003 l 950 1003 m 561 904 l 450 904 l 450 793 l 561 904 m 926 989 l 251 989 l 17 754 l 275 754 l 439 918 l 593 918 l 429 754 l 690 754 l 926 989 m 686 740 l 421 740 l 421 10 l 686 10 l 686 740 m 271 10 l 271 740 l 7 740 l 7 10 l 271 10 m 899 989 l 410 989 l 410 1036 l 521 1147 l 679 1147 l 722 1107 l 764 1147 l 899 1147 l 899 989 m 874 1133 l 768 1133 l 722 1088 l 674 1133 l 526 1133 l 433 1042 l 540 1042 l 600 1101 l 661 1042 l 782 1042 l 874 1133 m 778 1003 l 778 1028 l 664 1028 l 664 1003 l 778 1003 m 650 1003 l 650 1032 l 607 1075 l 607 1003 l 650 1003 m 535 1028 l 424 1028 l 424 1003 l 535 1003 l 535 1028 z "},"Ö":{"ha":1022,"x_min":0,"x_max":953,"o":"m 963 247 l 711 -4 l -7 -6 l -7 751 l 246 1003 l 963 1003 l 963 247 m 571 903 l 468 903 l 468 799 l 571 903 m 939 989 l 251 989 l 18 754 l 297 754 l 458 917 l 604 917 l 442 754 l 704 756 l 939 989 m 700 8 l 700 742 l 432 740 l 433 229 l 292 229 l 292 740 l 7 740 l 7 8 l 700 8 m 419 243 l 419 346 l 315 243 l 419 243 m 899 989 l 410 989 l 410 1038 l 519 1147 l 660 1147 l 660 1047 l 758 1147 l 899 1147 l 899 989 m 875 1133 l 764 1133 l 674 1042 l 783 1042 l 875 1133 m 779 1003 l 779 1028 l 660 1028 l 660 1003 l 779 1003 m 636 1133 l 525 1133 l 433 1042 l 546 1042 l 636 1133 m 542 1003 l 542 1028 l 424 1028 l 424 1003 l 542 1003 z "},"Ü":{"ha":1024,"x_min":-7,"x_max":961,"o":"m 961 1004 l 961 243 l 714 -4 l -7 -4 l -7 751 l 244 1004 l 554 1003 l 553 893 l 664 1004 l 961 1004 m 938 990 l 671 990 l 436 756 l 703 756 l 938 990 m 531 990 l 251 990 l 17 756 l 296 756 l 531 990 m 700 10 l 700 742 l 426 742 l 428 231 l 292 231 l 292 742 l 7 742 l 7 10 l 700 10 m 414 244 l 414 342 l 315 244 l 414 244 m 899 990 l 669 990 l 660 979 l 540 860 l 539 990 l 410 990 l 410 1038 l 519 1147 l 660 1147 l 660 1047 l 758 1147 l 899 1147 l 899 990 m 874 1133 l 765 1133 l 674 1042 l 782 1042 l 874 1133 m 778 1004 l 778 1028 l 660 1028 l 660 1000 l 664 1004 l 778 1004 m 635 1133 l 525 1133 l 433 1042 l 543 1042 l 635 1133 m 539 1004 l 539 1028 l 424 1028 l 424 1004 l 539 1004 z "},"á":{"ha":1026,"x_min":0,"x_max":957,"o":"z "},"à":{"ha":1026,"x_min":0,"x_max":957,"o":"z "},"â":{"ha":1026,"x_min":0,"x_max":957,"o":"z "},"ä":{"ha":1026,"x_min":0,"x_max":957,"o":"m 964 247 l 713 -4 l 406 -4 l 406 104 l 296 -4 l -7 -4 l -7 651 l 342 1003 l 867 1003 l 867 903 l 964 903 l 964 247 m 940 889 l 863 889 l 628 654 l 706 654 l 940 889 m 844 989 l 347 989 l 113 754 l 610 754 l 844 989 m 89 726 l 17 656 l 89 656 l 89 726 m 701 10 l 701 640 l 606 640 l 606 740 l 101 740 l 103 642 l 7 642 l 7 10 l 285 10 l 285 618 l 419 618 l 419 10 l 701 10 m 590 918 l 511 840 l 392 840 l 471 919 l 590 918 m 557 904 l 479 904 l 479 854 l 504 854 l 557 904 m 867 989 l 378 989 l 378 1038 l 488 1147 l 628 1147 l 628 1047 l 726 1147 l 867 1147 l 867 989 m 843 1133 l 732 1133 l 642 1042 l 751 1042 l 843 1133 m 747 1003 l 747 1028 l 628 1028 l 628 1003 l 747 1003 m 604 1133 l 493 1133 l 401 1042 l 514 1042 l 604 1133 m 510 1003 l 510 1028 l 392 1028 l 392 1003 l 510 1003 z "},"ã":{"ha":1026,"x_min":0,"x_max":957,"o":"z "},"å":{"ha":1026,"x_min":0,"x_max":957,"o":"m 964 247 l 713 -4 l 406 -4 l 406 104 l 296 -4 l -7 -4 l -7 651 l 342 1003 l 867 1003 l 867 903 l 964 903 l 964 247 m 940 889 l 863 889 l 628 654 l 706 654 l 940 889 m 844 989 l 347 989 l 113 754 l 610 754 l 844 989 m 89 726 l 17 656 l 89 656 l 89 726 m 701 10 l 701 640 l 606 640 l 606 740 l 101 740 l 103 642 l 7 642 l 7 10 l 285 10 l 285 618 l 419 618 l 419 10 l 701 10 m 590 918 l 511 840 l 392 840 l 471 919 l 590 918 m 557 904 l 479 904 l 479 854 l 504 854 l 557 904 m 831 989 l 465 989 l 465 1039 l 575 1149 l 831 1149 l 831 989 m 807 1135 l 582 1135 l 489 1043 l 715 1043 l 807 1135 m 711 1003 l 711 1029 l 479 1029 l 479 1003 l 711 1003 m 724 1117 l 671 1064 l 572 1064 l 624 1117 l 724 1117 m 690 1103 l 633 1103 l 633 1078 l 665 1078 l 690 1103 z "},"ç":{"ha":908,"x_min":0,"x_max":839,"o":"m 846 251 l 707 113 l 707 -22 l 478 -251 l 233 -251 l 233 -112 l 347 1 l 238 1 l -7 244 l -7 751 l 243 1003 l 846 1003 l 846 251 m 822 989 l 251 989 l 17 756 l 282 756 l 444 919 l 753 919 l 822 989 m 747 433 l 747 906 l 454 906 l 454 433 l 747 433 m 738 419 l 450 419 l 303 272 l 589 272 l 738 419 m 585 15 l 585 258 l 279 258 l 279 742 l 7 742 l 7 250 l 243 15 l 361 15 l 361 -124 l 247 -124 l 247 -237 l 465 -237 l 465 15 l 585 15 m 347 -110 l 349 -17 l 257 -110 l 347 -110 z "},"é":{"ha":929,"x_min":0,"x_max":860,"o":"m 867 247 l 615 -4 l -7 -4 l -7 750 l 246 1003 l 867 1003 l 867 247 m 843 989 l 251 989 l 17 754 l 613 754 l 699 840 l 385 840 l 463 918 l 774 918 l 843 989 m 768 429 l 768 904 l 472 904 l 472 854 l 724 854 l 724 710 l 618 604 l 458 604 l 458 429 l 768 429 m 760 415 l 454 417 l 304 265 l 610 265 l 760 415 m 608 618 l 608 740 l 7 740 l 7 10 l 606 10 l 606 251 l 281 251 l 281 618 l 608 618 m 864 989 l 375 989 l 375 1035 l 414 1075 l 864 1149 l 864 989 m 838 1131 l 421 1063 l 399 1039 l 747 1040 l 838 1131 m 744 1003 l 744 1026 l 389 1025 l 389 1003 l 744 1003 z "},"è":{"ha":929,"x_min":0,"x_max":860,"o":"z "},"ê":{"ha":929,"x_min":0,"x_max":860,"o":"z "},"ë":{"ha":929,"x_min":0,"x_max":860,"o":"z "},"í":{"ha":618,"x_min":0,"x_max":683,"o":"m 558 251 l 303 -4 l -7 -4 l -7 749 l 249 1003 l 558 1003 l 558 251 m 533 989 l 254 989 l 17 753 l 296 753 l 533 989 m 293 10 l 293 739 l 7 739 l 7 10 l 293 10 m 690 354 l 581 243 l 542 243 l 542 988 l 253 988 l 201 936 l 201 1035 l 240 1075 l 690 1147 l 690 354 m 664 1129 l 247 1061 l 225 1039 l 574 1039 l 664 1129 m 571 257 l 571 1025 l 215 1025 l 215 969 l 247 1001 l 556 1001 l 556 257 l 571 257 z "},"ì":{"ha":618,"x_min":0,"x_max":611,"o":"m 558 251 l 303 -4 l -7 -4 l -7 749 l 249 1003 l 558 1003 l 558 251 m 533 989 l 254 989 l 17 753 l 296 753 l 533 989 m 293 10 l 293 739 l 7 739 l 7 10 l 293 10 m 558 251 l 303 -4 l -7 -4 l -7 749 l 249 1003 l 558 1003 l 558 251 m 533 989 l 254 989 l 17 753 l 296 753 l 533 989 m 293 10 l 293 739 l 7 739 l 7 10 l 293 10 m 618 278 l 585 243 l 543 243 l 543 988 l 253 988 l 201 936 l 201 1035 l 313 1146 l 618 1068 l 618 278 m 596 1061 l 317 1131 l 225 1039 l 574 1039 l 596 1061 m 571 257 l 571 1025 l 215 1025 l 215 969 l 247 1001 l 557 1001 l 557 257 l 571 257 z "},"î":{"ha":618,"x_min":0,"x_max":618,"o":"m 558 251 l 303 -4 l -7 -4 l -7 749 l 249 1003 l 558 1003 l 558 251 m 533 989 l 254 989 l 17 753 l 296 753 l 533 989 m 293 10 l 293 739 l 7 739 l 7 10 l 293 10 m 558 251 l 303 -4 l -7 -4 l -7 749 l 249 1003 l 558 1003 l 558 251 m 533 989 l 254 989 l 17 753 l 296 753 l 533 989 m 293 10 l 293 739 l 7 739 l 7 10 l 293 10 m 625 1149 l 626 319 l 542 236 l 542 989 l 243 989 l 243 1040 l 461 1149 l 625 1149 m 611 1043 l 610 1135 l 464 1135 l 279 1043 l 374 1043 l 497 1104 l 497 1043 l 611 1043 m 368 1029 l 257 1029 l 257 1003 l 368 1003 l 368 1029 m 611 325 l 611 1029 l 497 1029 l 497 1003 l 556 1003 l 556 269 l 611 325 z "},"ï":{"ha":618,"x_min":0,"x_max":725,"o":"m 558 251 l 303 -4 l -7 -4 l -7 749 l 249 1003 l 558 1003 l 558 251 m 533 989 l 254 989 l 17 753 l 296 753 l 533 989 m 293 10 l 293 739 l 7 739 l 7 10 l 293 10 m 732 357 l 625 249 l 625 244 l 622 244 l 611 235 l 611 244 l 543 244 l 543 988 l 479 988 l 243 989 l 243 1038 l 354 1147 l 493 1147 l 493 1047 l 593 1147 l 732 1147 l 732 357 m 708 1133 l 600 1133 l 507 1042 l 615 1042 l 708 1133 m 469 1133 l 360 1133 l 267 1042 l 376 1042 l 469 1133 m 372 1003 l 372 1028 l 257 1028 l 257 1003 l 372 1003 m 611 258 l 611 1028 l 493 1028 l 493 1001 l 557 1001 l 557 258 l 611 258 z "},"ñ":{"ha":1013,"x_min":0,"x_max":943,"o":"m 950 1003 l 949 249 l 696 -4 l 406 -4 l 406 115 l 283 -4 l -7 -4 l -7 750 l 246 1003 l 950 1003 m 561 904 l 450 904 l 450 793 l 561 904 m 926 989 l 251 989 l 17 754 l 275 754 l 439 918 l 593 918 l 429 754 l 690 754 l 926 989 m 686 740 l 421 740 l 421 10 l 686 10 l 686 740 m 271 10 l 271 740 l 7 740 l 7 10 l 271 10 m 899 989 l 410 989 l 410 1036 l 521 1147 l 679 1147 l 722 1107 l 764 1147 l 899 1147 l 899 989 m 874 1133 l 768 1133 l 722 1088 l 674 1133 l 526 1133 l 433 1042 l 540 1042 l 600 1101 l 661 1042 l 782 1042 l 874 1133 m 778 1003 l 778 1028 l 664 1028 l 664 1003 l 778 1003 m 650 1003 l 650 1032 l 607 1075 l 607 1003 l 650 1003 m 535 1028 l 424 1028 l 424 1003 l 535 1003 l 535 1028 z "},"ó":{"ha":1022,"x_min":0,"x_max":953,"o":"z "},"ò":{"ha":1022,"x_min":0,"x_max":953,"o":"z "},"ô":{"ha":1022,"x_min":0,"x_max":953,"o":"z "},"ö":{"ha":1022,"x_min":0,"x_max":953,"o":"m 963 247 l 711 -4 l -7 -6 l -7 751 l 246 1003 l 963 1003 l 963 247 m 571 903 l 468 903 l 468 799 l 571 903 m 939 989 l 251 989 l 18 754 l 297 754 l 458 917 l 604 917 l 442 754 l 704 756 l 939 989 m 700 8 l 700 742 l 432 740 l 433 229 l 292 229 l 292 740 l 7 740 l 7 8 l 700 8 m 419 243 l 419 346 l 315 243 l 419 243 m 899 989 l 410 989 l 410 1038 l 519 1147 l 660 1147 l 660 1047 l 758 1147 l 899 1147 l 899 989 m 875 1133 l 764 1133 l 674 1042 l 783 1042 l 875 1133 m 779 1003 l 779 1028 l 660 1028 l 660 1003 l 779 1003 m 636 1133 l 525 1133 l 433 1042 l 546 1042 l 636 1133 m 542 1003 l 542 1028 l 424 1028 l 424 1003 l 542 1003 z "},"õ":{"ha":1022,"x_min":0,"x_max":953,"o":"z "},"ú":{"ha":1024,"x_min":-7,"x_max":961,"o":"m 961 1004 l 961 243 l 714 -4 l -7 -4 l -7 751 l 244 1004 l 554 1003 l 553 893 l 664 1004 l 961 1004 m 938 990 l 671 990 l 436 756 l 703 756 l 938 990 m 531 990 l 251 990 l 17 756 l 296 756 l 531 990 m 700 10 l 700 742 l 426 742 l 428 231 l 292 231 l 292 742 l 7 742 l 7 10 l 700 10 m 414 244 l 414 342 l 315 244 l 414 244 m 961 990 l 669 989 l 542 861 l 539 989 l 472 990 l 472 1033 l 511 1074 l 961 1146 l 961 990 m 935 1128 l 518 1061 l 496 1039 l 844 1040 l 935 1128 m 842 1004 l 842 1026 l 486 1024 l 486 1004 l 553 1004 l 554 894 l 664 1004 l 842 1004 z "},"ù":{"ha":1024,"x_min":0,"x_max":954,"o":"m 961 1004 l 961 243 l 714 -4 l -7 -4 l -7 751 l 244 1004 l 554 1003 l 553 893 l 664 1004 l 961 1004 m 938 990 l 671 990 l 436 756 l 703 756 l 938 990 m 531 990 l 251 990 l 17 756 l 296 756 l 531 990 m 700 10 l 700 742 l 426 742 l 428 231 l 292 231 l 292 742 l 7 742 l 7 10 l 700 10 m 414 244 l 414 342 l 315 244 l 414 244 m 961 1004 l 961 243 l 714 -4 l -7 -4 l -7 751 l 244 1004 l 554 1003 l 553 893 l 664 1004 l 961 1004 m 938 990 l 671 990 l 436 756 l 703 756 l 938 990 m 531 990 l 251 990 l 17 756 l 296 756 l 531 990 m 700 10 l 700 742 l 426 742 l 428 231 l 292 231 l 292 742 l 7 742 l 7 10 l 700 10 m 414 244 l 414 342 l 315 244 l 414 244 m 828 1068 l 828 990 l 671 990 l 540 860 l 540 990 l 410 990 l 410 1035 l 521 1146 l 828 1068 m 804 1061 l 525 1132 l 433 1039 l 782 1039 l 804 1061 m 779 1004 l 779 1025 l 424 1025 l 424 1004 l 554 1004 l 554 893 l 664 1004 l 779 1004 z "},"û":{"ha":1024,"x_min":0,"x_max":954,"o":"m 961 1004 l 961 243 l 714 -4 l -7 -4 l -7 751 l 244 1004 l 554 1003 l 553 893 l 664 1004 l 961 1004 m 938 990 l 671 990 l 436 756 l 703 756 l 938 990 m 531 990 l 251 990 l 17 756 l 296 756 l 531 990 m 700 10 l 700 742 l 426 742 l 428 231 l 292 231 l 292 742 l 7 742 l 7 10 l 700 10 m 414 244 l 414 342 l 315 244 l 414 244 m 799 990 l 667 990 l 540 860 l 540 990 l 417 990 l 417 1040 l 635 1149 l 797 1149 l 799 990 m 785 1004 l 785 1029 l 671 1029 l 671 1004 l 785 1004 m 785 1135 l 638 1135 l 453 1043 l 547 1043 l 671 1104 l 671 1043 l 785 1043 l 785 1135 m 542 1029 l 431 1029 l 431 1004 l 542 1004 l 542 1029 z "},"ü":{"ha":1024,"x_min":0,"x_max":954,"o":"m 961 1004 l 961 243 l 714 -4 l -7 -4 l -7 751 l 244 1004 l 554 1003 l 553 893 l 664 1004 l 961 1004 m 938 990 l 671 990 l 436 756 l 703 756 l 938 990 m 531 990 l 251 990 l 17 756 l 296 756 l 531 990 m 700 10 l 700 742 l 426 742 l 428 231 l 292 231 l 292 742 l 7 742 l 7 10 l 700 10 m 414 244 l 414 342 l 315 244 l 414 244 m 899 990 l 669 990 l 660 979 l 540 860 l 539 990 l 410 990 l 410 1038 l 519 1147 l 660 1147 l 660 1047 l 758 1147 l 899 1147 l 899 990 m 874 1133 l 765 1133 l 674 1042 l 782 1042 l 874 1133 m 778 1004 l 778 1028 l 660 1028 l 660 1000 l 664 1004 l 778 1004 m 635 1133 l 525 1133 l 433 1042 l 543 1042 l 635 1133 m 539 1004 l 539 1028 l 424 1028 l 424 1004 l 539 1004 z "},"†":{"ha":2054,"x_min":7,"x_max":2047,"o":"m 2047 586 q 2043 553 2047 563 q 2046 538 2046 544 q 2036 515 2046 524 l 2046 494 q 1997 472 2046 472 q 1976 479 1985 472 q 1958 472 1963 472 q 1869 528 1936 472 l 1865 528 l 1863 513 q 1865 496 1864 507 q 1846 474 1868 474 q 1818 479 1828 474 q 1799 475 1810 475 q 1776 479 1788 475 q 1749 475 1764 475 q 1729 479 1739 475 l 1721 492 l 1721 497 q 1724 560 1721 507 l 1718 581 q 1725 606 1718 590 q 1722 635 1722 617 q 1726 692 1722 657 l 1721 701 q 1728 758 1726 740 q 1719 783 1719 764 q 1743 826 1719 826 q 1756 821 1750 824 q 1772 828 1764 828 q 1828 822 1818 828 q 1882 828 1839 829 l 1886 824 q 1903 826 1892 824 q 1919 828 1914 828 q 1964 811 1953 828 q 2003 793 1978 814 l 2004 783 q 2038 738 2038 751 l 2036 728 q 2046 697 2046 714 q 2032 653 2046 661 q 2007 608 2036 621 l 2004 603 l 1983 597 q 2006 588 1993 590 q 2024 599 2017 599 q 2043 594 2032 599 l 2047 586 m 1546 918 q 1535 890 1546 904 q 1510 875 1524 875 q 1481 889 1501 875 q 1433 874 1450 874 q 1376 957 1376 874 q 1396 1015 1376 990 q 1447 1039 1415 1039 q 1464 1038 1456 1039 q 1461 1100 1461 1082 q 1492 1183 1461 1183 q 1515 1167 1515 1183 q 1513 1060 1515 1131 q 1511 954 1511 990 q 1524 907 1511 907 q 1539 921 1521 907 l 1543 922 l 1546 918 m 1368 913 q 1355 885 1368 899 q 1328 871 1342 871 q 1288 1006 1288 871 q 1297 1185 1288 1157 q 1326 1200 1303 1200 q 1342 1196 1335 1200 q 1344 1183 1344 1189 q 1340 1065 1344 1143 q 1336 946 1336 986 q 1350 907 1336 907 q 1364 925 1358 907 q 1368 913 1368 919 m 1679 571 q 1674 551 1679 560 q 1678 533 1678 542 q 1672 518 1678 525 q 1675 500 1675 508 q 1642 478 1675 475 l 1638 481 q 1590 476 1611 476 q 1467 474 1504 476 l 1457 479 q 1446 506 1446 511 q 1451 529 1446 519 q 1447 554 1447 542 q 1454 583 1447 569 q 1450 651 1450 592 q 1456 724 1450 714 q 1451 750 1451 739 q 1457 772 1451 764 q 1453 796 1453 779 q 1454 821 1453 807 q 1474 829 1467 829 q 1496 821 1485 829 l 1506 826 q 1621 821 1599 821 q 1636 824 1626 821 q 1651 828 1646 828 q 1674 813 1674 828 q 1668 797 1674 803 q 1672 781 1672 789 q 1668 763 1672 772 q 1672 744 1672 751 q 1628 724 1672 724 q 1603 725 1569 724 q 1583 713 1588 725 l 1586 706 l 1604 701 q 1628 704 1611 701 q 1654 706 1644 707 l 1657 706 l 1667 699 q 1668 681 1668 692 l 1663 672 q 1668 649 1668 658 q 1622 624 1668 624 l 1604 626 q 1588 624 1594 628 l 1588 614 l 1582 607 l 1589 590 l 1647 590 q 1679 571 1679 590 m 1282 972 q 1254 938 1282 957 q 1181 872 1240 872 q 1134 899 1150 872 q 1118 957 1118 925 q 1189 1040 1118 1040 q 1256 968 1249 1040 q 1272 975 1267 975 q 1282 972 1278 975 m 1114 1011 q 1106 982 1114 999 q 1088 965 1099 965 q 1071 989 1081 965 q 1056 918 1060 974 q 1029 876 1053 876 q 1008 910 1010 876 q 1010 957 1010 886 q 1008 981 1010 965 q 1006 1004 1006 996 q 1038 1040 1006 1040 q 1053 997 1057 1040 q 1092 1040 1074 1040 q 1114 1011 1114 1040 m 1408 751 q 1401 699 1408 726 l 1406 690 q 1400 608 1404 625 l 1406 579 l 1400 539 q 1406 493 1406 510 q 1371 478 1396 478 q 1356 482 1364 478 q 1318 476 1331 476 q 1299 493 1311 476 q 1283 519 1286 510 q 1251 556 1260 533 q 1221 585 1239 565 q 1215 535 1215 551 l 1222 518 q 1217 479 1215 492 q 1196 475 1204 475 q 1188 476 1192 475 q 1179 474 1183 474 q 1167 479 1174 474 l 1154 474 l 1106 474 q 1083 507 1083 476 q 1089 535 1083 521 q 1083 563 1083 547 q 1090 603 1083 581 l 1083 617 q 1089 671 1083 661 l 1085 679 q 1089 735 1089 690 q 1086 765 1089 754 l 1088 768 l 1089 782 q 1079 803 1081 788 q 1089 821 1083 811 q 1111 826 1093 826 q 1138 822 1125 826 q 1167 828 1149 828 l 1181 822 l 1194 828 q 1217 814 1207 828 l 1221 814 q 1236 785 1236 794 l 1236 783 l 1246 779 q 1261 750 1258 758 q 1282 736 1272 749 l 1285 739 q 1282 765 1282 754 q 1285 782 1282 775 l 1279 789 q 1283 824 1279 818 q 1314 831 1288 831 q 1347 825 1338 831 q 1360 829 1353 828 l 1365 826 q 1393 832 1374 832 q 1407 822 1399 832 q 1408 794 1408 797 l 1407 765 l 1404 763 q 1408 751 1407 756 m 1004 932 q 990 892 1004 913 q 958 872 976 872 q 933 888 938 872 q 899 871 921 871 q 840 946 840 871 q 860 1008 840 978 q 911 1039 881 1039 q 975 1018 975 1039 l 975 933 q 979 914 975 914 q 996 940 983 914 l 1001 938 q 1004 932 1003 933 m 851 1268 q 810 1151 835 1231 q 800 1068 800 1103 q 803 1028 800 1040 l 822 1031 l 829 1022 l 822 1010 l 807 1003 q 835 908 817 971 q 812 882 829 897 q 783 867 794 867 q 754 1004 754 867 q 725 1011 743 1007 q 654 864 701 864 q 614 883 614 864 l 617 890 q 668 1024 646 964 q 613 1076 613 1058 q 633 1101 613 1096 q 671 1074 642 1099 l 672 1114 q 661 1179 674 1147 q 617 1219 646 1219 q 560 1178 581 1219 q 543 1104 543 1144 q 554 1060 543 1083 q 585 1032 567 1032 q 597 1035 589 1032 q 610 1039 606 1039 q 622 1018 622 1039 q 589 992 622 992 q 517 1094 517 992 q 544 1199 517 1153 q 632 1253 576 1253 q 711 1172 692 1253 l 728 1046 q 761 1035 738 1039 q 842 1275 793 1275 l 851 1268 m 1529 268 q 1507 216 1529 242 q 1458 190 1485 190 q 1428 201 1442 190 q 1415 228 1415 213 q 1440 250 1415 250 q 1438 232 1438 240 q 1456 211 1438 211 q 1472 240 1472 211 q 1450 278 1472 278 q 1435 261 1446 272 q 1425 271 1425 264 q 1457 360 1457 331 q 1465 365 1457 365 l 1471 365 q 1478 336 1472 354 q 1510 253 1515 278 l 1522 274 q 1529 268 1529 274 m 1414 238 q 1363 193 1396 193 q 1340 239 1342 193 q 1342 299 1340 257 q 1332 324 1343 321 q 1313 249 1326 317 q 1279 196 1301 196 q 1268 199 1272 196 q 1260 281 1260 204 l 1260 304 q 1288 361 1260 361 q 1310 346 1310 361 q 1308 337 1310 343 q 1307 328 1307 331 q 1308 319 1307 324 q 1351 365 1329 365 q 1390 313 1390 365 q 1389 283 1390 303 q 1388 253 1388 263 q 1394 239 1388 239 l 1399 242 q 1408 249 1403 244 q 1414 238 1413 243 m 1039 500 q 1007 476 1039 479 q 956 475 1004 475 q 938 481 947 475 l 926 476 q 886 504 893 478 l 886 563 q 888 604 886 586 l 879 611 q 858 607 874 611 q 854 578 854 588 q 856 566 854 574 q 858 554 858 558 q 854 528 858 536 q 860 497 858 503 q 840 474 860 474 q 822 476 832 474 q 801 472 814 472 q 781 479 797 472 q 744 472 765 472 q 722 475 733 472 q 713 500 713 493 q 716 544 713 515 q 719 589 719 574 q 718 652 719 610 q 717 715 717 694 q 713 733 717 721 q 710 751 710 746 q 711 803 710 793 q 746 828 718 828 l 769 822 l 778 828 l 788 828 q 817 822 808 828 q 835 829 828 826 q 860 801 860 829 q 856 782 860 790 q 858 738 858 751 l 874 735 q 892 738 878 735 q 896 779 896 789 q 893 792 896 785 q 900 819 897 815 q 926 831 907 831 l 933 826 q 954 829 943 829 q 979 826 967 829 l 986 829 l 997 826 q 1011 829 1004 829 q 1033 824 1022 829 q 1039 806 1039 815 q 1036 781 1039 797 q 1033 756 1033 764 l 1038 750 q 1032 667 1039 683 q 1039 633 1039 649 q 1031 553 1039 563 q 1039 500 1039 529 m 1042 404 q 1015 369 1042 369 q 997 394 997 369 q 1024 429 997 429 q 1042 404 1042 429 m 1254 267 q 1238 218 1254 257 l 1206 144 q 1144 97 1179 97 q 1112 113 1126 97 q 1097 146 1097 128 q 1114 178 1097 178 q 1121 174 1118 175 l 1126 142 q 1151 118 1131 118 q 1179 186 1179 118 q 1178 200 1179 192 l 1178 214 q 1142 194 1160 194 q 1086 268 1086 194 q 1156 360 1086 360 q 1178 351 1161 360 q 1214 358 1199 358 q 1226 310 1226 358 l 1226 294 q 1225 272 1225 281 l 1225 233 q 1243 279 1243 258 q 1254 267 1254 276 m 1082 260 q 1066 217 1082 238 q 1028 196 1050 196 q 993 265 993 196 q 992 287 993 272 q 990 308 990 301 q 1028 357 990 357 q 1046 318 1046 357 q 1044 288 1046 308 q 1042 258 1042 268 q 1049 232 1042 232 q 1068 249 1060 232 q 1078 267 1074 257 q 1082 260 1082 267 m 988 268 q 965 216 988 242 q 917 190 943 190 q 888 201 901 190 q 874 228 874 213 q 899 250 874 250 q 896 232 896 240 q 914 211 896 211 q 932 240 932 211 q 908 278 932 278 q 893 261 904 272 q 885 271 885 264 q 906 313 893 289 q 913 347 908 319 q 924 365 915 365 l 929 365 q 936 336 931 354 l 961 297 q 968 253 972 274 l 981 274 q 988 268 988 274 m 669 644 q 656 599 669 610 q 646 559 657 579 q 617 535 635 539 q 589 505 613 522 q 553 488 565 488 l 547 489 q 485 472 528 472 q 443 479 454 472 l 442 478 q 379 494 421 478 l 374 504 q 340 524 357 508 q 315 554 338 528 l 317 563 q 296 600 308 575 l 297 607 q 288 649 289 635 q 294 669 294 657 q 311 739 294 711 l 318 740 q 335 767 319 753 q 363 785 350 782 q 410 817 364 801 q 472 831 450 831 q 551 813 533 831 q 611 778 588 806 l 615 776 q 628 765 619 771 l 632 751 l 643 744 q 664 694 663 707 l 661 692 q 665 669 661 685 q 669 644 669 653 m 872 256 q 842 211 872 231 q 786 192 813 192 q 711 274 711 192 q 733 335 711 310 q 790 361 756 361 q 849 294 849 361 q 821 256 849 256 q 767 288 792 256 q 807 218 767 218 q 867 267 833 218 q 872 256 872 267 m 710 238 q 698 209 710 224 q 672 194 686 194 q 643 208 664 194 q 596 193 613 193 q 539 276 539 193 q 558 334 539 310 q 610 358 578 358 q 626 357 618 358 q 624 419 624 401 q 656 503 624 503 q 678 486 678 503 q 676 380 678 450 q 675 274 675 310 q 686 226 675 226 l 701 240 l 706 242 l 710 238 m 249 510 q 247 483 249 503 q 225 476 242 478 l 196 475 l 192 479 q 157 476 168 476 l 151 479 q 126 474 122 474 q 56 479 81 474 q 26 474 49 474 l 18 476 l 10 489 q 7 499 8 492 l 7 561 l 11 569 q 7 590 7 576 q 10 616 7 599 q 13 642 13 633 l 11 647 l 8 650 q 11 719 11 679 q 8 808 11 758 q 49 826 18 826 q 67 821 58 826 q 104 828 100 828 l 115 822 q 136 828 122 828 q 150 821 143 828 q 152 806 150 815 q 154 792 154 796 l 149 772 q 154 732 154 764 q 154 673 154 696 q 154 642 154 650 q 153 639 153 633 l 149 633 l 149 628 l 153 622 l 153 618 q 150 606 154 613 l 154 593 q 181 592 169 593 q 196 594 186 594 l 200 592 q 214 594 208 594 q 219 593 218 594 l 228 597 q 249 560 249 593 q 243 547 249 557 l 246 538 l 244 531 q 249 510 249 524 m 2029 569 l 2029 576 l 2025 578 q 2010 567 2017 571 q 1956 588 1974 579 l 1951 592 l 1951 599 q 1972 614 1965 608 q 2015 643 2006 615 q 2014 653 2014 649 q 2026 674 2014 658 q 2028 707 2028 696 l 2017 718 l 2015 726 q 2019 739 2015 732 q 1993 769 2013 757 q 1978 789 1989 783 q 1953 793 1972 790 q 1876 810 1942 810 q 1856 806 1869 810 q 1835 803 1842 803 q 1810 806 1826 803 q 1786 808 1794 808 q 1769 805 1781 808 q 1753 801 1758 801 l 1746 803 l 1739 796 l 1739 792 q 1750 754 1739 799 q 1740 724 1740 740 q 1749 693 1740 699 q 1744 676 1749 688 q 1739 663 1739 665 l 1746 600 q 1738 582 1738 590 q 1741 565 1738 576 q 1744 549 1744 554 q 1742 525 1744 540 q 1740 501 1740 510 q 1753 492 1740 492 q 1774 501 1761 492 l 1781 501 q 1801 493 1789 493 q 1812 496 1806 493 q 1822 499 1818 499 q 1829 496 1824 499 q 1836 493 1835 493 l 1846 493 l 1849 497 l 1850 503 q 1847 524 1844 514 q 1853 543 1853 538 l 1853 549 l 1858 554 l 1860 560 l 1863 561 l 1865 558 l 1864 547 q 1893 532 1871 549 q 1921 514 1915 515 q 1961 492 1929 496 q 1978 497 1969 497 q 1991 493 1982 497 q 2006 489 2000 489 q 2024 493 2014 489 l 2025 497 l 2017 513 l 2029 569 m 1467 907 l 1465 1011 q 1456 1024 1464 1024 q 1421 965 1421 1024 q 1456 897 1421 897 q 1467 907 1467 897 m 1660 528 l 1660 540 q 1654 551 1654 544 q 1657 561 1654 556 q 1660 569 1660 567 q 1616 572 1651 572 q 1568 582 1581 571 l 1569 589 q 1564 607 1564 599 l 1564 611 q 1572 632 1572 619 l 1569 640 l 1575 644 q 1592 644 1581 643 q 1608 646 1603 646 q 1619 642 1614 644 q 1636 646 1628 646 l 1642 643 l 1649 646 q 1647 660 1649 650 q 1644 674 1644 669 l 1647 682 l 1644 686 q 1635 688 1642 686 l 1624 688 q 1615 685 1621 688 q 1604 683 1608 683 q 1590 686 1601 683 q 1574 688 1578 689 l 1567 688 l 1564 692 l 1568 703 q 1564 715 1564 708 q 1568 724 1564 718 l 1567 735 l 1574 740 q 1575 742 1568 740 l 1653 746 l 1654 753 q 1651 764 1654 758 q 1656 783 1656 772 q 1650 799 1654 788 l 1653 804 l 1650 807 q 1634 804 1644 807 q 1618 801 1624 801 q 1606 804 1614 801 q 1593 807 1597 807 q 1567 805 1585 807 q 1540 803 1549 803 l 1531 807 q 1519 808 1524 808 q 1510 806 1517 808 q 1501 803 1504 803 l 1492 803 l 1482 808 l 1476 808 l 1472 801 q 1475 785 1472 796 q 1478 771 1478 775 q 1474 756 1478 765 q 1471 740 1471 746 q 1474 731 1471 738 q 1476 722 1476 725 q 1473 678 1476 707 q 1469 635 1469 650 q 1472 614 1469 622 l 1469 603 q 1474 582 1469 596 l 1469 558 q 1471 542 1469 553 q 1472 526 1472 532 q 1465 507 1465 513 q 1471 494 1468 500 q 1485 497 1476 494 q 1500 499 1494 499 q 1651 494 1628 499 l 1657 497 q 1654 519 1656 513 l 1660 528 m 1208 940 q 1185 1025 1208 1025 q 1169 958 1169 1025 q 1192 890 1169 890 q 1208 940 1208 890 m 1390 783 l 1389 810 l 1382 811 l 1368 806 q 1307 811 1353 811 q 1301 808 1303 810 l 1301 794 q 1306 768 1306 788 q 1300 721 1306 742 q 1306 704 1306 710 l 1304 701 l 1303 700 l 1293 701 l 1286 707 l 1285 713 q 1246 740 1265 718 q 1217 778 1242 744 q 1196 806 1219 803 q 1179 801 1188 801 q 1163 808 1171 810 l 1156 808 q 1142 801 1151 801 q 1126 804 1136 801 q 1111 807 1115 807 l 1103 803 l 1103 797 q 1110 728 1110 790 q 1107 699 1108 717 q 1110 669 1106 681 l 1106 658 q 1108 629 1106 649 q 1111 600 1111 610 q 1107 560 1111 589 q 1104 517 1103 532 l 1104 503 l 1108 497 q 1128 496 1118 496 q 1129 497 1118 496 q 1161 497 1140 497 l 1196 497 q 1200 519 1199 510 l 1194 531 q 1199 546 1196 538 q 1203 594 1196 561 l 1196 597 q 1204 614 1199 607 l 1208 614 l 1218 606 q 1268 567 1231 606 q 1307 515 1306 529 q 1326 499 1322 501 q 1329 500 1319 499 q 1353 500 1338 500 l 1379 500 l 1383 506 l 1383 511 q 1381 549 1383 515 l 1386 563 q 1381 606 1386 593 q 1389 750 1389 638 q 1385 767 1389 747 l 1390 783 m 931 906 l 931 1006 q 922 1024 931 1024 q 889 947 889 1024 q 913 896 889 896 q 931 906 931 896 m 1022 499 q 1014 557 1014 529 q 1018 575 1014 563 q 1022 593 1022 588 q 1018 631 1022 606 q 1014 669 1014 657 q 1017 678 1014 672 q 1021 686 1021 685 q 1018 706 1021 693 q 1015 724 1015 718 l 1019 731 q 1021 788 1019 768 l 1019 808 l 1006 810 l 1000 807 q 975 807 983 808 l 969 811 q 929 807 954 813 l 922 811 l 915 808 q 910 729 910 764 l 913 719 q 896 717 907 719 q 879 715 885 715 q 856 719 874 715 q 846 713 853 715 l 842 718 q 836 778 844 767 q 842 807 839 797 l 838 810 l 822 801 l 814 803 l 807 810 l 776 810 l 735 808 l 731 806 l 729 799 q 735 774 729 782 l 731 749 l 732 746 q 739 650 733 660 q 736 621 735 635 q 740 590 739 597 q 737 547 740 575 q 733 503 733 518 l 738 493 l 747 492 l 828 492 l 838 494 l 839 504 q 838 519 839 510 q 836 533 836 528 q 842 549 842 543 q 839 567 842 554 q 836 585 836 579 q 843 622 836 581 q 888 631 872 629 l 897 625 l 906 626 l 908 619 q 906 556 911 597 q 907 501 908 519 l 911 496 l 938 500 q 954 496 946 496 q 969 497 960 496 q 985 499 979 499 l 989 496 q 1015 496 1003 499 l 1022 499 m 1175 243 l 1175 308 q 1157 338 1172 338 q 1132 268 1132 338 q 1156 218 1132 218 q 1175 243 1175 218 m 653 654 q 629 732 653 690 l 621 736 q 475 811 579 811 q 388 788 442 811 q 358 763 379 767 q 338 742 350 750 q 322 692 336 726 q 308 639 308 658 q 331 569 308 603 q 388 519 354 535 q 496 493 399 493 q 597 535 521 493 q 618 560 599 540 q 638 601 638 579 l 638 604 q 649 619 643 613 q 651 637 649 625 q 653 654 653 649 m 810 315 q 790 343 810 343 q 767 293 771 343 q 778 300 769 300 q 789 294 782 300 q 800 288 796 288 q 810 315 810 288 m 629 226 l 628 331 q 618 343 628 343 q 585 285 585 343 q 618 217 585 217 q 629 226 629 217 m 231 503 q 228 519 231 508 q 225 536 225 531 q 227 549 225 540 q 229 561 229 557 l 228 569 l 225 572 l 211 572 l 208 569 q 189 575 197 569 q 140 576 158 572 l 139 572 l 132 571 l 129 574 l 132 596 q 132 618 133 608 l 129 622 l 128 631 q 132 660 128 640 q 136 689 136 679 q 131 701 133 696 q 132 715 132 710 l 129 718 q 133 732 129 724 q 136 746 136 740 q 128 765 136 757 q 131 776 128 768 q 133 786 133 783 l 133 803 l 131 807 q 108 808 124 807 q 86 810 93 810 q 78 807 83 810 q 72 804 74 804 q 53 807 69 804 q 33 807 43 808 l 29 800 l 29 768 l 35 761 l 35 754 q 31 708 35 739 q 28 663 28 678 l 32 649 q 28 621 32 639 q 25 593 25 603 q 28 499 25 510 l 33 494 q 57 499 50 497 q 81 494 67 494 q 117 499 110 494 l 128 494 q 156 500 146 499 l 161 496 q 193 499 182 497 l 197 496 q 215 501 213 501 q 226 500 219 501 l 231 503 m 1925 678 q 1917 635 1921 661 q 1878 603 1896 603 q 1871 607 1874 606 q 1854 600 1861 601 l 1849 601 l 1847 607 l 1851 615 q 1850 631 1850 628 q 1851 636 1850 632 l 1851 644 q 1848 659 1851 649 q 1844 675 1844 669 q 1847 689 1844 679 q 1850 703 1850 699 l 1850 704 q 1844 721 1844 711 q 1850 731 1844 725 l 1847 735 l 1850 739 l 1854 739 l 1858 736 q 1882 746 1868 746 q 1908 732 1907 746 q 1919 717 1919 728 q 1918 713 1919 714 l 1921 708 q 1923 692 1921 703 q 1925 678 1925 682 m 540 636 q 518 586 522 592 q 468 565 503 565 q 439 581 449 576 q 422 599 426 596 q 419 626 422 608 q 415 653 415 643 q 418 664 415 657 q 421 675 421 671 q 418 689 421 685 q 434 717 419 703 q 463 732 449 731 l 465 736 q 476 739 471 739 q 497 731 483 739 q 511 715 510 722 l 522 711 q 536 693 531 699 q 540 636 536 650 m 1906 676 q 1901 690 1901 681 q 1882 728 1901 728 l 1865 721 l 1864 715 l 1868 711 l 1868 707 q 1865 687 1868 700 q 1863 668 1863 674 q 1871 628 1863 665 l 1876 624 q 1900 651 1900 628 l 1900 663 q 1903 669 1900 664 q 1906 676 1906 674 m 518 640 q 517 644 518 642 l 517 681 q 498 704 514 692 q 471 717 482 717 l 468 715 q 449 707 454 708 q 438 692 446 694 q 435 660 435 701 q 436 656 435 657 l 433 650 q 436 640 433 647 q 440 608 440 619 q 453 590 446 601 q 462 588 456 590 q 472 585 468 585 q 485 588 463 585 q 508 626 494 596 q 518 640 518 649 z "},"°":{"ha":749,"x_min":0,"x_max":679,"o":"m 685 542 l 431 288 l -7 288 l -7 749 l 246 1001 l 685 1001 l 685 542 m 406 908 l 357 908 l 357 858 l 406 908 m 660 988 l 251 988 l 17 753 l 178 753 l 344 921 l 439 921 l 271 753 l 424 753 l 660 988 m 421 739 l 260 739 l 261 431 l 174 431 l 174 739 l 7 739 l 7 301 l 421 301 l 421 739 m 247 444 l 247 493 l 197 444 l 247 444 z "},"¢":{"ha":910,"x_min":-7,"x_max":847,"o":"m 847 1146 l 846 469 l 707 328 l 707 233 l 475 1 l 233 1 l 233 219 l -7 460 l -7 753 l 243 1003 l 463 1003 l 607 1146 l 847 1146 m 747 650 l 747 906 l 456 906 l 456 650 l 747 650 m 822 1132 l 611 1132 l 468 989 l 249 989 l 17 757 l 283 757 l 446 919 l 751 919 l 821 989 l 679 989 l 822 1132 m 738 636 l 451 636 l 303 485 l 588 485 l 738 636 m 585 229 l 585 471 l 279 471 l 279 743 l 7 743 l 7 465 l 247 229 l 247 15 l 465 15 l 465 229 l 585 229 z "},"£":{"ha":1024,"x_min":-7,"x_max":961,"o":"m 961 1003 l 961 243 l 708 -10 l 99 -10 l 99 346 l -7 346 l -7 492 l 99 599 l 99 601 l -7 601 l -7 749 l 99 853 l 203 854 l 353 1003 l 961 1003 m 711 713 l 711 829 l 624 743 l 624 625 l 711 713 m 861 425 l 861 904 l 572 904 l 572 854 l 725 854 l 725 708 l 619 601 l 572 603 l 572 597 l 725 597 l 725 450 l 701 426 l 861 425 m 936 989 l 358 989 l 208 840 l 104 839 l 17 753 l 614 753 l 701 840 l 485 840 l 563 918 l 865 918 l 936 989 m 711 456 l 711 574 l 624 488 l 624 369 l 711 456 m 701 583 l 497 583 l 411 497 l 614 497 l 701 583 m 851 413 l 686 411 l 619 346 l 494 346 l 411 263 l 703 263 l 851 413 m 699 4 l 699 249 l 388 249 l 388 360 l 610 360 l 610 483 l 388 483 l 388 615 l 610 615 l 610 739 l 7 739 l 7 615 l 113 615 l 113 483 l 7 483 l 7 360 l 113 360 l 113 4 l 699 4 m 99 497 l 99 578 l 17 497 l 99 497 z "},"•":{"ha":725,"x_min":-7,"x_max":663,"o":"m 663 467 l 408 214 l -7 214 l -7 629 l 249 885 l 663 885 l 663 467 m 640 871 l 254 871 l 17 633 l 403 633 l 640 871 m 399 228 l 399 619 l 7 619 l 7 228 l 399 228 z "},"®":{"ha":1293,"x_min":0,"x_max":0,"o":""},"©":{"ha":6906,"x_min":32,"x_max":6906,"o":"m 664 1186 l 613 1186 l 613 1197 q 647 1316 613 1268 q 750 1364 681 1364 q 848 1322 814 1364 q 882 1215 882 1281 q 815 1079 882 1133 q 746 1032 808 1074 q 683 979 700 1001 q 660 926 665 957 l 882 926 l 882 867 l 603 867 q 636 1001 610 960 q 675 1047 651 1025 q 782 1125 713 1072 q 826 1215 826 1163 q 746 1308 826 1308 q 664 1186 668 1308 m 1068 1308 q 1151 1113 1151 1308 q 1068 911 1151 911 q 983 1106 983 911 q 1068 1308 983 1308 m 992 883 q 1067 856 1024 856 q 1207 1114 1207 856 q 1139 1342 1207 1292 q 1071 1364 1110 1364 q 928 1107 928 1364 q 992 883 928 942 m 1418 1308 q 1501 1113 1501 1308 q 1417 911 1501 911 q 1333 1106 1333 911 q 1418 1308 1333 1308 m 1342 883 q 1415 856 1372 856 q 1557 1114 1557 856 q 1489 1342 1557 1292 q 1421 1364 1460 1364 q 1278 1107 1278 1364 q 1342 883 1278 942 m 1768 1308 q 1851 1113 1851 1308 q 1767 911 1851 911 q 1683 1106 1683 911 q 1768 1308 1683 1308 m 1692 883 q 1765 856 1722 856 q 1907 1114 1907 856 q 1839 1342 1907 1292 q 1771 1364 1808 1364 q 1628 1107 1628 1364 q 1692 883 1628 942 m 2189 867 l 2133 867 l 2133 1375 l 2189 1375 l 2189 1165 l 2410 1165 l 2410 1375 l 2467 1375 l 2467 867 l 2410 867 l 2410 1106 l 2189 1106 l 2189 867 m 2821 867 l 2554 867 l 2554 1375 l 2610 1375 l 2610 928 l 2821 928 l 2821 867 m 2993 911 q 2906 1053 2906 911 q 2993 1193 2906 1193 q 3082 1053 3082 1193 q 2993 911 3082 911 m 2993 1249 q 2883 1185 2919 1249 q 2853 1053 2853 1132 q 2881 924 2853 972 q 2944 865 2906 882 q 2993 856 2967 856 q 3104 919 3068 856 q 3135 1053 3135 972 q 3104 1185 3135 1132 q 2993 1249 3068 1249 m 3244 867 l 3193 867 l 3193 1376 l 3244 1376 l 3244 1188 q 3297 1238 3268 1225 q 3339 1246 3315 1246 q 3429 1188 3407 1246 q 3440 1104 3440 1158 l 3440 867 l 3389 867 l 3389 1100 q 3363 1182 3389 1164 q 3328 1190 3349 1190 q 3244 1071 3244 1190 l 3244 867 m 3517 867 l 3517 1238 l 3565 1238 l 3565 1185 q 3619 1238 3588 1222 q 3663 1246 3639 1246 q 3753 1188 3728 1246 q 3764 1104 3764 1163 l 3764 867 l 3711 867 l 3711 1100 q 3651 1190 3711 1190 q 3571 1115 3589 1190 q 3568 1071 3568 1099 l 3568 867 l 3517 867 m 3968 1193 q 4039 1142 4019 1193 q 4050 1081 4049 1117 l 3881 1081 q 3968 1193 3889 1193 m 3967 911 q 3881 1029 3885 911 l 4103 1029 q 4099 1121 4103 1094 q 4032 1232 4088 1197 q 3968 1249 4003 1249 q 3858 1183 3897 1249 q 3825 1051 3825 1128 q 3904 871 3825 917 q 3965 856 3931 856 q 4057 894 4019 856 q 4099 985 4090 931 l 4049 985 q 3967 911 4025 911 m 4217 867 l 4165 867 l 4165 1238 l 4214 1238 l 4214 1174 q 4296 1246 4246 1246 q 4313 1243 4303 1246 l 4313 1178 q 4293 1181 4300 1181 q 4222 1128 4244 1181 q 4217 1076 4217 1111 l 4217 867 m 4629 1040 q 4593 1022 4611 1022 q 4550 1089 4550 1022 q 4599 1218 4550 1178 q 4631 1232 4615 1232 q 4674 1175 4674 1232 q 4629 1040 4674 1086 m 4621 1268 q 4522 1185 4558 1268 q 4503 1093 4503 1140 q 4521 1019 4503 1050 q 4582 983 4542 983 q 4665 1056 4638 983 q 4664 1042 4664 1047 q 4718 986 4664 986 q 4800 1031 4764 986 q 4844 1174 4844 1085 q 4742 1363 4844 1311 q 4631 1389 4692 1389 q 4439 1292 4510 1389 q 4383 1113 4383 1214 q 4490 888 4383 958 q 4617 851 4544 851 q 4764 896 4697 851 q 4806 928 4783 907 l 4786 960 q 4622 892 4710 892 q 4475 956 4529 892 q 4424 1110 4424 1015 q 4522 1318 4424 1256 q 4635 1349 4571 1349 q 4786 1268 4744 1349 q 4806 1174 4806 1226 q 4757 1040 4806 1078 q 4722 1028 4739 1028 q 4697 1057 4697 1028 q 4706 1104 4697 1071 l 4743 1256 l 4701 1256 l 4688 1199 q 4621 1268 4682 1268 m 5039 907 q 4985 969 4985 907 q 5036 1029 4985 1015 q 5075 1036 5039 1029 l 5104 1042 q 5135 1056 5121 1044 l 5135 996 q 5106 933 5135 958 q 5039 907 5076 907 m 5068 1197 q 5136 1135 5136 1197 q 5110 1092 5136 1096 l 5025 1078 q 4964 1050 4988 1072 q 4933 964 4933 1018 q 4959 886 4933 917 q 5029 856 4985 856 q 5138 915 5090 856 q 5192 863 5142 863 q 5221 868 5203 863 l 5221 911 q 5203 908 5210 908 q 5186 931 5186 908 l 5186 1143 q 5163 1215 5186 1186 q 5069 1249 5133 1249 q 4953 1174 4976 1249 q 4947 1126 4949 1156 l 4996 1126 q 5068 1197 5000 1197 m 5393 911 q 5304 1053 5304 911 q 5393 1193 5304 1193 q 5482 1053 5482 1193 q 5393 911 5482 911 m 5393 1249 q 5282 1185 5319 1249 q 5251 1053 5251 1132 q 5279 924 5251 972 q 5343 865 5304 882 q 5393 856 5365 856 q 5504 919 5467 856 q 5533 1053 5533 972 q 5504 1185 5533 1132 q 5393 1249 5467 1249 m 5646 867 l 5594 867 l 5594 1375 l 5646 1375 l 5646 867 m 5794 867 l 5735 867 l 5735 943 l 5794 943 l 5794 867 m 6074 996 l 6122 996 q 5996 856 6107 856 q 5872 969 5897 856 q 5865 1043 5865 1004 q 5896 1179 5865 1128 q 6003 1246 5935 1246 q 6122 1111 6111 1246 l 6074 1111 q 6004 1192 6064 1192 q 5918 1044 5918 1192 q 5997 907 5918 907 q 6074 996 6061 907 m 6297 911 q 6208 1053 6208 911 q 6297 1193 6208 1193 q 6386 1053 6386 1193 q 6297 911 6386 911 m 6297 1249 q 6186 1185 6224 1249 q 6156 1053 6156 1132 q 6185 924 6156 972 q 6247 865 6208 882 q 6297 856 6269 856 q 6408 919 6371 856 q 6439 1053 6439 972 q 6408 1185 6439 1132 q 6297 1249 6371 1249 m 6497 867 l 6497 1238 l 6547 1238 l 6547 1185 q 6600 1238 6571 1224 q 6636 1246 6617 1246 q 6718 1188 6693 1246 q 6808 1246 6757 1246 q 6901 1172 6886 1246 q 6906 1114 6906 1151 l 6906 867 l 6853 867 l 6853 1126 q 6800 1189 6853 1189 q 6743 1156 6763 1189 q 6726 1089 6726 1128 l 6726 867 l 6675 867 l 6675 1124 q 6626 1190 6675 1190 q 6567 1154 6589 1190 q 6549 1085 6549 1124 l 6549 867 l 6497 867 m 32 11 l 32 382 l 82 382 l 82 329 q 135 382 106 368 q 171 390 151 390 q 254 332 228 390 q 343 390 292 390 q 436 317 421 390 q 440 258 440 296 l 440 11 l 388 11 l 388 271 q 335 333 388 333 q 278 300 297 333 q 261 233 261 272 l 261 11 l 210 11 l 210 268 q 161 335 210 335 q 103 299 125 335 q 83 229 83 268 l 83 11 l 32 11 m 644 338 q 715 286 696 338 q 726 225 725 261 l 557 225 q 644 338 565 338 m 643 56 q 557 174 561 56 l 779 174 q 775 265 779 239 q 708 376 764 342 q 644 393 679 393 q 535 328 574 393 q 501 196 501 272 q 581 15 501 61 q 642 0 607 0 q 733 39 696 0 q 775 129 767 75 l 725 129 q 643 56 701 56 m 840 11 l 840 382 l 890 382 l 890 329 q 943 382 914 368 q 979 390 960 390 q 1061 332 1036 390 q 1151 390 1100 390 q 1244 317 1229 390 q 1249 258 1249 296 l 1249 11 l 1196 11 l 1196 271 q 1143 333 1196 333 q 1086 300 1106 333 q 1069 233 1069 272 l 1069 11 l 1018 11 l 1018 268 q 969 335 1018 335 q 910 299 932 335 q 892 229 892 268 l 892 11 l 840 11 m 1367 197 q 1454 336 1367 336 q 1535 200 1535 336 q 1451 54 1535 54 q 1367 197 1367 54 m 1367 11 l 1367 58 q 1456 0 1399 0 q 1560 72 1525 0 q 1588 204 1588 128 q 1515 378 1588 335 q 1461 392 1490 392 q 1369 335 1406 392 l 1369 519 l 1319 519 l 1319 11 l 1367 11 m 1775 338 q 1846 286 1826 338 q 1857 225 1857 261 l 1688 225 q 1775 338 1696 338 m 1774 56 q 1688 174 1692 56 l 1910 174 q 1906 265 1910 239 q 1839 376 1894 343 q 1775 393 1810 393 q 1665 328 1704 393 q 1632 196 1632 272 q 1711 15 1632 61 q 1772 0 1738 0 q 1864 39 1826 0 q 1906 129 1897 75 l 1856 129 q 1774 56 1833 56 m 2024 11 l 1972 11 l 1972 382 l 2021 382 l 2021 318 q 2103 390 2053 390 q 2119 389 2110 390 l 2119 322 q 2100 325 2107 325 q 2031 272 2051 325 q 2024 222 2024 256 l 2024 11 m 2147 128 l 2197 128 q 2276 51 2201 51 q 2349 111 2349 51 q 2290 164 2349 147 l 2246 178 q 2157 279 2157 204 q 2211 379 2157 349 q 2272 393 2238 393 q 2356 362 2325 393 q 2388 276 2386 331 l 2339 276 q 2269 342 2333 342 q 2206 289 2206 342 q 2258 236 2206 251 l 2317 218 q 2397 124 2397 194 q 2364 33 2397 67 q 2274 0 2331 0 q 2147 128 2153 0 m 2519 11 l 2461 11 l 2461 88 l 2519 88 l 2519 11 m 2701 51 q 2647 114 2647 51 q 2697 174 2647 160 q 2738 181 2701 174 l 2767 186 q 2797 200 2783 189 l 2797 140 q 2768 77 2797 103 q 2701 51 2739 51 m 2729 342 q 2797 279 2797 342 q 2771 236 2797 240 l 2686 224 q 2626 194 2649 217 q 2594 108 2594 163 q 2620 31 2594 61 q 2692 0 2646 0 q 2800 60 2753 0 q 2854 7 2804 7 q 2882 13 2865 7 l 2882 56 q 2865 53 2871 53 q 2849 75 2849 53 l 2849 288 q 2822 362 2849 331 q 2731 393 2796 393 q 2615 318 2639 393 q 2608 271 2610 301 l 2657 271 q 2729 342 2663 342 m 3056 56 q 2967 197 2967 56 q 3056 338 2967 338 q 3143 197 3143 338 q 3056 56 3143 56 m 3056 393 q 2944 329 2981 393 q 2914 197 2914 276 q 2942 68 2914 117 q 3006 10 2967 26 q 3056 0 3028 0 q 3167 64 3129 0 q 3196 197 3196 117 q 3165 329 3196 276 q 3056 393 3129 393 m 3307 11 l 3256 11 l 3256 519 l 3307 519 l 3307 11 m 3457 11 l 3397 11 l 3397 88 l 3457 88 l 3457 11 m 3735 142 l 3783 142 q 3658 0 3769 0 q 3535 114 3558 0 q 3528 188 3528 149 q 3558 324 3528 272 q 3665 392 3597 392 q 3783 256 3774 392 l 3735 256 q 3665 336 3725 336 q 3579 189 3579 336 q 3660 51 3579 51 q 3735 142 3722 51 m 3960 56 q 3871 197 3871 56 q 3960 338 3871 338 q 4049 197 4049 338 q 3960 56 4049 56 m 3960 393 q 3849 329 3886 393 q 3818 197 3818 276 q 3846 68 3818 117 q 3910 10 3871 26 q 3960 0 3932 0 q 4071 64 4033 0 q 4100 197 4100 117 q 4069 329 4100 276 q 3960 393 4033 393 m 4160 11 l 4160 382 l 4210 382 l 4210 329 q 4261 382 4233 368 q 4299 390 4278 390 q 4381 332 4356 390 q 4471 390 4418 390 q 4563 317 4549 390 q 4567 258 4567 296 l 4567 11 l 4514 11 l 4514 271 q 4463 333 4514 333 q 4406 300 4425 333 q 4389 233 4389 272 l 4389 11 l 4338 11 l 4338 268 q 4288 335 4338 335 q 4229 299 4251 335 q 4210 229 4210 268 l 4210 11 l 4160 11 m 4606 11 l 4738 519 l 4781 519 l 4649 11 l 4606 11 m 4918 331 l 4867 331 l 4867 11 l 4815 11 l 4815 331 l 4774 331 l 4774 381 l 4815 381 l 4815 446 q 4893 526 4815 526 q 4918 525 4904 526 l 4918 468 q 4899 469 4904 469 q 4867 426 4867 469 l 4867 381 l 4918 381 l 4918 331 m 5089 56 q 5000 197 5000 56 q 5089 338 5000 338 q 5178 197 5178 338 q 5089 56 5178 56 m 5089 393 q 4978 329 5015 393 q 4949 197 4949 276 q 4976 68 4949 117 q 5040 10 5000 26 q 5089 0 5061 0 q 5200 64 5164 0 q 5231 197 5231 117 q 5200 329 5231 276 q 5089 393 5163 393 m 5289 11 l 5289 382 l 5338 382 l 5338 329 q 5392 382 5360 367 q 5435 392 5413 392 q 5525 332 5501 392 q 5536 249 5536 307 l 5536 11 l 5485 11 l 5485 244 q 5424 335 5485 335 q 5344 260 5361 335 q 5340 215 5340 243 l 5340 11 l 5289 11 m 5581 382 l 5622 382 l 5622 485 l 5674 485 l 5674 382 l 5722 382 l 5722 331 l 5674 331 l 5674 89 q 5703 60 5674 60 q 5722 61 5711 60 l 5722 11 q 5685 6 5707 6 q 5622 86 5622 6 l 5622 331 l 5581 331 l 5581 382 m 5774 11 l 5774 382 l 5821 382 l 5821 329 q 5876 382 5844 367 q 5919 392 5896 392 q 6010 332 5985 392 q 6021 249 6021 307 l 6021 11 l 5968 11 l 5968 244 q 5908 335 5968 335 q 5828 260 5846 335 q 5824 215 5824 243 l 5824 11 l 5774 11 m 6224 338 q 6296 286 6275 338 q 6307 225 6306 261 l 6138 225 q 6224 338 6146 338 m 6224 56 q 6138 174 6140 56 l 6360 174 q 6356 265 6360 239 q 6288 376 6343 343 q 6225 393 6260 393 q 6114 328 6153 393 q 6082 196 6082 272 q 6160 15 6082 61 q 6222 0 6188 0 q 6312 38 6276 0 q 6356 129 6347 75 l 6306 129 q 6224 56 6282 56 m 6472 11 l 6422 11 l 6422 382 l 6469 382 l 6469 318 q 6553 390 6501 390 q 6569 389 6560 390 l 6569 322 q 6550 325 6556 325 q 6479 272 6500 325 q 6472 222 6472 256 l 6472 11 z "},"´":{"ha":544,"x_min":-7,"x_max":482,"o":"m 482 989 l -7 989 l -7 1035 l 32 1075 l 482 1149 l 482 989 m 456 1131 l 39 1063 l 17 1039 l 365 1040 l 456 1131 m 363 1003 l 363 1026 l 7 1025 l 7 1003 l 363 1003 z "},"¨":{"ha":544,"x_min":-7,"x_max":482,"o":"m 482 989 l -7 989 l -7 1038 l 103 1147 l 243 1147 l 243 1047 l 342 1147 l 482 1147 l 482 989 m 458 1133 l 347 1133 l 257 1042 l 367 1042 l 458 1133 m 363 1003 l 363 1028 l 243 1028 l 243 1003 l 363 1003 m 219 1133 l 108 1133 l 17 1042 l 129 1042 l 219 1133 m 125 1003 l 125 1028 l 7 1028 l 7 1003 l 125 1003 z "},"Æ":{"ha":1343,"x_min":-7,"x_max":1281,"o":"m 1281 1003 l 1279 247 l 1029 -4 l 406 -4 l 406 104 l 299 -4 l -7 -4 l -7 653 l 342 1003 l 1281 1003 m 1124 715 l 1124 831 l 1036 744 l 1036 628 l 1124 715 m 1183 904 l 886 904 l 886 854 l 1138 854 l 1138 710 l 1032 604 l 872 604 l 872 429 l 1182 429 l 1183 904 m 1257 989 l 346 989 l 113 754 l 1026 754 l 1114 840 l 799 840 l 876 918 l 1188 918 l 1257 989 m 1174 417 l 869 417 l 718 265 l 1024 265 l 1174 417 m 1022 618 l 1022 740 l 103 740 l 103 643 l 7 642 l 7 10 l 285 10 l 285 618 l 419 618 l 419 10 l 421 10 l 1019 10 l 1019 251 l 694 251 l 694 618 l 1022 618 m 89 726 l 17 656 l 89 656 l 89 726 m 589 918 l 511 840 l 390 840 l 469 918 l 589 918 m 554 904 l 479 904 l 479 854 l 504 854 l 554 904 z "},"Ø":{"ha":1025,"x_min":-7,"x_max":961,"o":"m 961 249 l 710 -4 l -7 -3 l -7 751 l 244 1003 l 961 1003 l 961 249 m 567 904 l 469 904 l 469 807 l 567 904 m 936 989 l 250 989 l 17 756 l 296 756 l 460 918 l 599 918 l 438 757 l 704 757 l 936 989 m 700 10 l 700 743 l 421 743 l 292 614 l 292 742 l 7 742 l 7 11 l 700 10 m 426 232 l 292 232 l 292 460 l 425 593 l 426 232 m 413 246 l 411 342 l 315 246 l 413 246 z "},"¥":{"ha":1011,"x_min":-6,"x_max":949,"o":"m 949 847 l 754 653 l 889 653 l 889 503 l 740 356 l 740 253 l 485 -4 l 175 -4 l 175 257 l 17 257 l 17 403 l 94 482 l -6 582 l -6 751 l 246 1003 l 525 1003 l 525 879 l 649 1004 l 949 1004 l 949 847 m 926 990 l 656 990 l 421 756 l 690 756 l 926 990 m 865 639 l 740 639 l 510 407 l 636 407 l 865 639 m 501 989 l 251 989 l 17 756 l 267 756 l 501 989 m 397 603 l 397 710 l 288 603 l 397 603 m 686 604 l 686 742 l 411 742 l 411 589 l 264 589 l 264 742 l 7 742 l 8 588 l 189 407 l 189 393 l 31 393 l 31 271 l 189 271 l 189 10 l 475 10 l 475 271 l 632 271 l 632 393 l 476 393 l 686 604 m 168 407 l 104 471 l 40 407 l 168 407 z "},"ª":{"ha":746,"x_min":-7,"x_max":683,"o":"m 683 542 l 431 292 l -7 290 l -7 750 l 92 847 l 160 847 l 160 911 l 253 1004 l 683 1003 l 683 542 m 661 989 l 258 990 l 185 917 l 433 915 l 351 833 l 96 833 l 17 754 l 425 754 l 661 989 m 401 903 l 174 903 l 175 847 l 346 847 l 401 903 m 421 740 l 7 740 l 7 304 l 421 304 l 421 740 m 261 631 l 261 431 l 174 431 l 174 631 l 261 631 m 247 444 l 247 496 l 197 444 l 247 444 z "},"º":{"ha":749,"x_min":-7,"x_max":685,"o":"m 685 542 l 431 288 l -7 288 l -7 749 l 246 1001 l 685 1001 l 685 542 m 406 908 l 357 908 l 357 858 l 406 908 m 660 988 l 251 988 l 17 753 l 178 753 l 344 921 l 439 921 l 271 753 l 424 753 l 660 988 m 421 739 l 260 739 l 261 431 l 174 431 l 174 739 l 7 739 l 7 301 l 421 301 l 421 739 m 247 444 l 247 493 l 197 444 l 247 444 z "},"æ":{"ha":1343,"x_min":0,"x_max":1274,"o":"m 1281 1003 l 1279 247 l 1029 -4 l 406 -4 l 406 104 l 299 -4 l -7 -4 l -7 653 l 342 1003 l 1281 1003 m 1124 715 l 1124 831 l 1036 744 l 1036 628 l 1124 715 m 1183 904 l 886 904 l 886 854 l 1138 854 l 1138 710 l 1032 604 l 872 604 l 872 429 l 1182 429 l 1183 904 m 1257 989 l 346 989 l 113 754 l 1026 754 l 1114 840 l 799 840 l 876 918 l 1188 918 l 1257 989 m 1174 417 l 869 417 l 718 265 l 1024 265 l 1174 417 m 1022 618 l 1022 740 l 103 740 l 103 643 l 7 642 l 7 10 l 285 10 l 285 618 l 419 618 l 419 10 l 421 10 l 1019 10 l 1019 251 l 694 251 l 694 618 l 1022 618 m 89 726 l 17 656 l 89 656 l 89 726 m 589 918 l 511 840 l 390 840 l 469 918 l 589 918 m 554 904 l 479 904 l 479 854 l 504 854 l 554 904 z "},"ø":{"ha":1025,"x_min":0,"x_max":956,"o":"m 961 249 l 710 -4 l -7 -3 l -7 751 l 244 1003 l 961 1003 l 961 249 m 567 904 l 469 904 l 469 807 l 567 904 m 936 989 l 250 989 l 17 756 l 296 756 l 460 918 l 599 918 l 438 757 l 704 757 l 936 989 m 700 10 l 700 743 l 421 743 l 292 614 l 292 742 l 7 742 l 7 11 l 700 10 m 426 232 l 292 232 l 292 460 l 425 593 l 426 232 m 413 246 l 411 342 l 315 246 l 413 246 z "},"¿":{"ha":840,"x_min":-7,"x_max":778,"o":"m 778 856 l 681 758 l 640 758 l 640 717 l 529 604 l 390 604 l 390 363 l 714 363 l 713 94 l 615 -4 l -7 -4 l -7 750 l 72 829 l 349 829 l 382 861 l 419 861 l 419 904 l 517 1001 l 778 1001 l 778 856 m 754 988 l 524 988 l 443 908 l 675 908 l 754 988 m 671 772 l 671 894 l 433 894 l 433 861 l 640 861 l 640 772 l 671 772 m 617 847 l 386 847 l 354 815 l 79 815 l 17 754 l 524 754 l 617 847 m 692 349 l 386 349 l 304 265 l 608 265 l 692 349 m 606 251 l 281 251 l 281 618 l 519 618 l 519 740 l 7 740 l 7 10 l 606 10 l 606 251 z "},"¡":{"ha":625,"x_min":-7,"x_max":563,"o":"m 563 219 l 465 121 l 418 121 l 289 -7 l -7 -7 l -7 733 l 122 864 l 204 864 l 204 904 l 301 1001 l 563 1001 l 563 219 m 539 988 l 307 988 l 228 908 l 460 908 l 539 988 m 396 850 l 129 850 l 17 738 l 283 738 l 396 850 m 456 135 l 456 894 l 218 894 l 218 863 l 419 863 l 419 136 l 456 135 m 279 724 l 7 724 l 7 7 l 279 7 l 279 724 z "},"ƒ":{"ha":931,"x_min":-7,"x_max":868,"o":"m 868 249 l 781 161 l 606 161 l 440 -4 l -7 -4 l -7 263 l 161 432 l 179 431 l 179 611 l -7 611 l -7 750 l 99 856 l 282 854 l 432 1003 l 868 1003 l 868 249 m 843 989 l 436 989 l 289 840 l 101 840 l 17 754 l 597 754 l 686 842 l 521 843 l 599 919 l 775 919 l 843 989 m 771 906 l 608 906 l 608 856 l 710 857 l 710 711 l 607 608 l 608 176 l 769 175 l 771 906 m 593 618 l 593 740 l 7 740 l 7 625 l 193 625 l 193 253 l 7 253 l 7 10 l 429 10 l 429 618 l 593 618 m 179 267 l 179 417 l 167 417 l 17 267 l 179 267 z "},"«":{"ha":1046,"x_min":-6,"x_max":983,"o":"m 565 772 l 410 618 l 517 513 l 425 421 l 425 311 l 525 210 l 307 -8 l -6 306 l -6 426 l 565 996 l 565 772 m 496 511 l 400 608 l 158 367 l 307 217 l 411 322 l 411 428 l 496 511 m 300 18 l 300 204 l 139 367 l 300 528 l 300 714 l 8 421 l 8 311 l 300 18 m 983 251 l 724 -8 l 411 306 q 411 426 411 367 l 982 997 l 982 772 l 826 618 l 983 460 l 983 251 m 967 458 l 817 608 l 575 367 l 725 217 l 967 458 m 717 18 l 717 206 l 556 367 l 717 528 l 717 714 l 425 421 l 425 311 l 717 18 z "},"»":{"ha":1038,"x_min":-8,"x_max":975,"o":"m 975 558 l 403 -14 l 403 211 l 558 367 l 403 522 l 403 731 l 661 990 l 975 675 l 975 558 m 957 674 l 661 971 l 419 731 l 717 433 l 957 674 m 710 313 l 710 421 l 417 714 l 417 526 l 578 367 l 417 206 l 417 19 l 710 313 m 475 468 l -7 -15 l -7 210 l 149 367 l -7 522 l -8 732 l 251 990 l 467 776 l 417 726 l 417 526 l 475 468 m 447 775 l 251 971 l 10 731 l 307 433 l 403 526 l 403 729 l 447 775 m 300 313 l 300 421 l 7 714 l 7 528 l 168 367 l 7 204 l 7 19 l 300 313 z "},"…":{"ha":1454,"x_min":-7,"x_max":1392,"o":"m 1392 269 l 1119 -3 l 826 -3 l 826 233 l 1099 506 l 1392 506 l 1392 269 m 1368 492 l 1104 492 l 850 238 l 1114 238 l 1368 492 m 1110 11 l 1110 224 l 840 224 l 840 11 l 1110 11 m 1392 269 l 1119 -3 l 826 -3 l 826 233 l 1099 506 l 1392 506 l 1392 269 m 1368 492 l 1104 492 l 850 238 l 1114 238 l 1368 492 m 1110 11 l 1110 224 l 840 224 l 840 11 l 1110 11 m 975 361 l 840 226 l 840 133 l 703 -3 l 410 -3 l 410 121 l 288 -3 l -7 -3 l -7 233 l 265 506 l 558 506 l 558 381 l 682 506 l 975 506 l 975 361 m 951 492 l 688 492 l 433 238 l 697 239 l 951 492 m 693 11 l 693 225 l 424 224 l 424 11 l 693 11 m 535 492 l 271 492 l 18 238 l 281 239 l 535 492 m 276 11 l 276 225 l 7 224 l 7 11 l 276 11 z "}," ":{"ha":556,"x_min":0,"x_max":0,"o":""},"À":{"ha":1026,"x_min":0,"x_max":957,"o":"m 964 247 l 713 -4 l 406 -4 l 406 104 l 296 -4 l -7 -4 l -7 651 l 342 1003 l 867 1003 l 867 903 l 964 903 l 964 247 m 940 889 l 863 889 l 628 654 l 706 654 l 940 889 m 844 989 l 347 989 l 113 754 l 610 754 l 844 989 m 89 726 l 17 656 l 89 656 l 89 726 m 701 10 l 701 640 l 606 640 l 606 740 l 101 740 l 103 642 l 7 642 l 7 10 l 285 10 l 285 618 l 419 618 l 419 10 l 701 10 m 590 918 l 511 840 l 392 840 l 471 919 l 590 918 m 557 904 l 479 904 l 479 854 l 504 854 l 557 904 m 826 989 l 410 989 l 410 1035 l 521 1146 l 825 1069 l 826 989 m 804 1061 l 525 1132 l 433 1039 l 785 1039 l 804 1061 m 779 1003 l 779 1025 l 424 1025 l 424 1003 l 779 1003 z "},"Ã":{"ha":1026,"x_min":0,"x_max":957,"o":"m 964 247 l 713 -4 l 406 -4 l 406 104 l 296 -4 l -7 -4 l -7 651 l 342 1003 l 867 1003 l 867 903 l 964 903 l 964 247 m 940 889 l 863 889 l 628 654 l 706 654 l 940 889 m 844 989 l 347 989 l 113 754 l 610 754 l 844 989 m 89 726 l 17 656 l 89 656 l 89 726 m 701 10 l 701 640 l 606 640 l 606 740 l 101 740 l 103 642 l 7 642 l 7 10 l 285 10 l 285 618 l 419 618 l 419 10 l 701 10 m 590 918 l 511 840 l 392 840 l 471 919 l 590 918 m 557 904 l 479 904 l 479 854 l 504 854 l 557 904 m 868 989 l 379 989 l 379 1036 l 490 1147 l 649 1147 l 692 1107 l 733 1147 l 868 1147 l 868 989 m 843 1133 l 738 1133 l 692 1088 l 643 1133 l 496 1133 l 403 1042 l 510 1042 l 569 1101 l 631 1042 l 751 1042 l 843 1133 m 747 1003 l 747 1028 l 633 1028 l 633 1003 l 747 1003 m 619 1003 l 619 1032 l 576 1075 l 576 1003 l 619 1003 m 504 1028 l 393 1028 l 393 1003 l 504 1003 l 504 1028 z "},"Õ":{"ha":1022,"x_min":0,"x_max":953,"o":"m 963 247 l 711 -4 l -7 -6 l -7 751 l 246 1003 l 963 1003 l 963 247 m 571 903 l 468 903 l 468 799 l 571 903 m 939 989 l 251 989 l 18 754 l 297 754 l 458 917 l 604 917 l 442 754 l 704 756 l 939 989 m 700 8 l 700 742 l 432 740 l 433 229 l 292 229 l 292 740 l 7 740 l 7 8 l 700 8 m 419 243 l 419 346 l 315 243 l 419 243 z "},"Œ":{"ha":1350,"x_min":-7,"x_max":1288,"o":"m 1288 247 l 1036 -4 l -7 -4 l -7 754 l 240 1003 l 1288 1003 l 1288 247 m 1190 904 l 894 904 l 894 854 l 1144 854 l 1144 710 l 1039 604 l 879 604 l 879 429 l 1190 429 l 1190 904 m 1264 989 l 249 989 l 17 756 l 294 756 l 458 921 l 600 921 l 436 756 l 440 756 l 438 754 l 1033 754 l 1121 840 l 807 840 l 883 918 l 1194 918 l 1264 989 m 567 907 l 468 907 l 468 811 l 567 907 m 1181 415 l 875 417 l 725 265 l 1031 265 l 1181 415 m 1029 618 l 1029 740 l 426 740 l 426 232 l 292 232 l 292 742 l 7 742 l 7 10 l 1026 10 l 1026 251 l 701 251 l 701 618 l 1029 618 m 413 246 l 413 342 l 315 246 l 413 246 z "},"œ":{"ha":1350,"x_min":0,"x_max":1281,"o":"m 1288 247 l 1036 -4 l -7 -4 l -7 754 l 240 1003 l 1288 1003 l 1288 247 m 1190 904 l 894 904 l 894 854 l 1144 854 l 1144 710 l 1039 604 l 879 604 l 879 429 l 1190 429 l 1190 904 m 1264 989 l 249 989 l 17 756 l 294 756 l 458 921 l 600 921 l 436 756 l 440 756 l 438 754 l 1033 754 l 1121 840 l 807 840 l 883 918 l 1194 918 l 1264 989 m 567 907 l 468 907 l 468 811 l 567 907 m 1181 415 l 875 417 l 725 265 l 1031 265 l 1181 415 m 1029 618 l 1029 740 l 426 740 l 426 232 l 292 232 l 292 742 l 7 742 l 7 10 l 1026 10 l 1026 251 l 701 251 l 701 618 l 1029 618 m 413 246 l 413 342 l 315 246 l 413 246 z "},"–":{"ha":1065,"x_min":-7,"x_max":1003,"o":"m 1003 635 l 751 383 l -7 383 l -7 622 l 244 874 l 1003 874 l 1003 635 m 978 860 l 250 860 l 17 628 l 744 628 l 978 860 m 742 397 l 742 614 l 7 614 l 7 397 l 742 397 z "},"—":{"ha":1413,"x_min":-7,"x_max":1350,"o":"m 1350 636 l 1097 385 l -7 385 l -7 624 l 244 875 l 1350 876 l 1350 636 m 1325 863 l 250 861 l 17 628 l 1093 629 l 1325 863 m 1089 399 l 1089 615 l 7 614 l 7 399 l 1089 399 z "},"“":{"ha":1038,"x_min":-7,"x_max":975,"o":"m 975 769 l 706 500 l 410 500 l 410 739 l 835 1164 l 833 1007 l 975 1008 l 975 769 m 949 994 l 829 993 l 576 742 l 696 742 l 949 994 m 693 514 l 692 728 l 553 729 l 553 861 l 424 733 l 424 514 l 693 514 m 558 1008 l 558 868 l 424 733 l 424 635 l 289 500 l -7 500 l -7 738 l 418 1164 l 418 1007 l 558 1008 m 535 994 l 414 993 l 163 743 l 283 743 l 535 994 m 279 514 l 279 729 l 136 729 l 136 863 l 7 733 l 7 514 l 279 514 z "},"”":{"ha":1038,"x_min":-7,"x_max":975,"o":"m 975 765 l 551 343 l 553 497 l 410 496 l 410 735 l 678 1004 l 975 1004 l 975 765 m 950 990 l 683 990 l 433 739 l 699 739 l 950 990 m 696 506 l 694 725 l 424 725 l 424 510 l 567 511 l 565 376 l 696 506 m 558 1004 l 557 863 l 424 729 l 424 633 l 135 344 l 135 496 l -7 496 l -7 735 l 263 1004 l 558 1004 m 533 990 l 267 990 l 15 739 l 282 739 l 533 990 m 279 507 l 278 725 l 7 725 l 7 510 l 149 510 l 149 378 l 279 507 z "},"‘":{"ha":621,"x_min":-7,"x_max":558,"o":"m 558 769 l 289 500 l -7 500 l -7 739 l 418 1164 l 417 1007 l 558 1008 l 558 769 m 532 994 l 413 993 l 160 742 l 279 742 l 532 994 m 276 514 l 275 728 l 136 729 l 136 861 l 7 733 l 7 514 l 276 514 z "},"’":{"ha":621,"x_min":0,"x_max":551,"o":"m 558 765 l 135 343 l 136 497 l -7 496 l -7 735 l 261 1004 l 558 1004 l 558 765 m 533 990 l 267 990 l 17 739 l 282 739 l 533 990 m 279 506 l 278 725 l 7 725 l 7 510 l 150 511 l 149 376 l 279 506 z "},"ÿ":{"ha":1015,"x_min":0,"x_max":946,"o":"m 953 849 l 743 639 l 743 250 l 486 -4 l 178 -4 l 178 401 l -7 585 l -6 751 l 246 1003 l 539 1003 l 538 878 l 664 1003 l 953 1004 l 953 849 m 929 990 l 669 989 l 433 754 l 694 756 l 929 990 m 513 989 l 251 989 l 18 754 l 279 756 l 513 989 m 410 603 l 410 713 l 300 603 l 410 603 m 689 604 l 689 742 l 424 740 l 424 589 l 275 589 l 275 742 l 7 740 l 8 589 l 192 407 l 192 10 l 476 10 l 476 393 l 689 604 m 882 992 l 669 989 l 525 847 l 524 989 l 393 989 l 393 1038 l 504 1147 l 643 1147 l 643 1047 l 742 1147 l 882 1147 l 882 992 m 858 1133 l 749 1133 l 657 1042 l 765 1042 l 858 1133 m 761 1003 l 761 1028 l 643 1028 l 643 983 l 664 1004 l 761 1003 m 618 1133 l 510 1133 l 417 1042 l 526 1042 l 618 1133 m 522 1003 l 522 1028 l 407 1028 l 407 1003 l 522 1003 z "},"Ÿ":{"ha":1015,"x_min":-7,"x_max":953,"o":"m 953 849 l 743 639 l 743 250 l 486 -4 l 178 -4 l 178 401 l -7 585 l -6 751 l 246 1003 l 539 1003 l 538 878 l 664 1003 l 953 1004 l 953 849 m 929 990 l 669 989 l 433 754 l 694 756 l 929 990 m 513 989 l 251 989 l 18 754 l 279 756 l 513 989 m 410 603 l 410 713 l 300 603 l 410 603 m 689 604 l 689 742 l 424 740 l 424 589 l 275 589 l 275 742 l 7 740 l 8 589 l 192 407 l 192 10 l 476 10 l 476 393 l 689 604 m 882 992 l 669 989 l 525 847 l 524 989 l 393 989 l 393 1038 l 504 1147 l 643 1147 l 643 1047 l 742 1147 l 882 1147 l 882 992 m 858 1133 l 749 1133 l 657 1042 l 765 1042 l 858 1133 m 761 1003 l 761 1028 l 643 1028 l 643 983 l 664 1004 l 761 1003 m 618 1133 l 510 1133 l 417 1042 l 526 1042 l 618 1133 m 522 1003 l 522 1028 l 407 1028 l 407 1003 l 522 1003 z "},"¤":{"ha":1147,"x_min":-18,"x_max":1085,"o":"m 1085 250 l 835 1 l 485 1 l 236 249 l 236 353 l -18 353 l 235 604 l 235 606 l -17 606 l 232 856 l 336 856 l 482 1003 l 1085 1003 l 1085 250 m 1061 989 l 490 989 l 342 842 l 238 842 l 151 756 l 742 756 l 828 842 l 613 842 l 690 919 l 990 919 l 1061 989 m 988 432 l 986 906 l 700 906 l 700 856 l 851 856 l 851 710 l 747 606 l 635 606 l 635 603 l 851 603 l 851 458 l 825 431 l 988 432 m 828 589 l 629 589 l 542 503 l 742 503 l 828 589 m 975 417 l 810 417 l 747 354 l 625 354 l 542 271 l 829 271 l 975 417 m 825 15 l 825 257 l 518 257 l 518 367 l 738 367 l 738 489 l 518 489 l 518 619 l 738 619 l 738 742 l 138 742 l 17 619 l 249 619 l 249 489 l 138 489 l 17 367 l 250 367 l 250 254 l 490 15 l 825 15 m 235 585 l 151 503 l 233 503 l 235 585 z "},"‹":{"ha":629,"x_min":-6,"x_max":567,"o":"m 567 251 l 307 -8 l -6 306 q -6 426 -6 367 l 565 997 l 565 772 l 410 618 l 567 460 l 567 251 m 550 458 l 400 608 l 158 367 l 308 217 l 550 458 m 300 18 l 300 206 l 139 367 l 300 528 l 300 714 l 8 421 l 8 311 l 300 18 z "},"›":{"ha":628,"x_min":-7,"x_max":565,"o":"m 565 558 l -7 -14 l -7 211 l 149 367 l -7 522 l -7 731 l 251 990 l 565 675 l 565 558 m 547 674 l 251 971 l 10 731 l 307 433 l 547 674 m 300 313 l 300 421 l 7 714 l 7 526 l 168 367 l 7 206 l 7 19 l 300 313 z "},"‡":{"ha":1075,"x_min":69,"x_max":1004,"o":"m 788 996 l 778 985 q 663 1038 724 1032 q 482 1104 592 1088 l 485 1118 q 668 1050 593 1101 q 788 996 731 1043 m 846 935 l 839 924 q 413 1090 663 1042 l 415 1103 q 846 935 665 1056 m 900 867 l 893 856 q 650 990 786 931 q 383 1063 496 1056 l 385 1076 q 654 1004 503 1069 q 900 867 783 949 m 933 814 l 926 803 q 640 960 801 893 q 326 1039 461 1035 l 326 1053 q 646 975 469 1049 q 933 814 799 911 m 965 728 l 960 715 q 853 796 935 726 l 824 799 q 683 881 785 836 q 526 935 597 917 q 251 976 368 976 l 251 990 q 531 949 388 990 q 831 813 753 883 l 835 811 q 733 885 806 846 q 306 1014 574 972 l 307 1028 q 826 839 668 972 q 858 808 836 829 l 896 804 q 951 772 915 794 l 943 761 q 892 790 928 772 l 878 793 q 965 728 906 768 m 964 668 l 958 656 q 872 707 926 669 q 743 790 836 740 q 351 917 574 881 l 353 931 q 750 801 578 893 q 857 733 785 783 q 964 668 924 688 m 990 675 l 981 664 q 638 867 838 785 q 250 946 424 953 l 250 960 l 264 961 q 761 825 494 967 q 990 675 894 753 m 996 550 l 986 542 q 869 664 935 607 l 867 663 l 865 668 q 440 860 647 856 l 439 857 l 435 860 l 435 860 q 361 874 415 878 l 360 888 q 386 888 374 889 q 354 892 368 894 l 351 906 q 363 906 357 906 q 439 874 394 907 q 872 679 651 874 q 876 681 874 679 q 972 625 917 681 l 963 615 q 886 667 917 661 q 996 550 953 606 m 1004 492 l 993 483 q 721 739 890 636 q 368 844 539 849 l 367 858 l 375 858 q 826 682 607 864 q 1004 492 936 590 m 1004 338 l 990 333 l 979 367 l 993 371 l 1004 338 m 999 464 l 988 456 q 663 751 808 690 q 989 424 836 656 l 978 417 q 807 622 906 528 q 588 769 689 736 l 588 769 q 376 814 486 811 l 378 828 q 597 781 493 825 q 703 747 640 781 q 999 464 839 672 m 979 253 l 965 250 l 956 286 l 968 290 l 979 253 m 331 900 q 306 890 319 892 q 281 897 296 890 l 281 896 l 276 897 l 229 886 l 226 900 l 275 911 q 289 924 281 919 l 226 915 l 224 929 l 290 939 l 293 926 q 319 938 303 932 l 324 924 q 290 908 301 918 q 308 904 301 904 q 321 911 314 904 l 331 900 m 985 389 l 974 382 q 578 742 786 665 q 490 770 549 751 q 388 788 432 789 q 249 756 317 786 q 125 685 207 738 l 117 696 q 299 789 253 785 q 388 801 328 796 q 493 783 435 803 q 597 749 569 758 q 694 700 653 726 q 985 389 840 608 m 340 882 l 338 868 q 292 871 315 871 q 201 850 242 869 l 196 863 q 294 885 238 883 q 340 882 318 885 m 357 856 l 354 843 q 322 846 339 846 q 185 815 265 844 l 181 829 q 321 858 263 858 q 357 856 340 860 m 979 333 l 965 331 q 907 436 940 414 q 965 292 957 346 l 951 290 q 888 442 943 347 l 888 442 q 882 451 885 444 l 882 451 q 743 617 831 543 q 557 725 656 692 q 479 743 536 732 q 453 753 469 747 q 379 761 418 761 q 271 736 338 760 q 181 678 197 708 l 181 679 l 165 665 l 156 675 l 165 683 q 118 640 142 682 l 106 647 q 165 697 135 697 q 178 694 172 697 q 379 775 274 774 q 456 765 419 775 q 483 757 465 763 q 581 732 515 750 q 896 456 782 657 q 979 333 943 453 m 371 822 l 319 811 q 279 789 311 790 q 225 772 253 789 l 218 783 q 286 803 249 803 q 306 815 300 803 q 283 819 296 819 q 176 778 243 818 l 169 790 q 282 832 236 831 q 315 825 303 832 l 368 836 l 371 822 m 218 765 q 167 738 197 765 l 158 749 q 211 779 192 778 l 218 779 l 218 765 m 915 69 q 878 13 896 26 l 869 22 q 794 -42 844 -15 l 788 -29 q 881 79 867 14 l 893 76 q 872 25 888 50 q 901 75 885 35 l 915 69 m 824 75 q 750 22 788 22 q 671 83 708 21 q 619 172 654 113 q 494 386 571 256 l 490 392 l 503 399 l 506 393 q 628 185 579 268 q 682 90 646 153 q 747 36 717 36 q 813 83 779 38 l 824 75 m 882 6 q 825 -47 854 -36 l 819 -33 q 871 13 846 -24 l 882 6 m 967 226 l 953 224 q 921 301 946 269 q 740 594 886 463 q 611 675 693 636 q 467 725 535 710 q 383 735 418 735 q 228 672 306 733 q 188 625 213 646 q 203 631 193 629 q 275 682 235 671 q 379 718 308 717 q 561 682 465 719 q 835 472 742 614 q 913 308 892 386 q 961 158 956 249 l 947 158 q 924 260 944 211 q 935 167 935 207 q 924 94 936 119 l 911 101 q 921 165 922 124 q 904 282 921 213 q 867 393 888 357 q 821 468 836 444 q 767 538 793 510 q 556 669 692 617 q 379 704 463 706 q 285 671 315 703 q 383 696 326 694 q 596 636 486 697 q 601 636 599 636 q 726 567 640 638 q 876 346 811 497 q 910 174 908 271 q 904 97 911 135 l 890 100 q 896 181 896 135 q 817 433 893 304 q 633 614 742 561 q 799 433 731 546 q 885 204 868 321 l 886 201 l 885 200 q 888 161 888 179 q 843 29 889 83 q 804 -15 817 -3 q 756 -47 781 -36 q 675 -89 717 -87 q 554 -7 613 -90 q 467 168 517 47 q 400 315 417 289 q 496 60 408 229 q 678 -97 579 -100 q 800 -39 736 -97 l 810 -50 q 756 -90 781 -75 q 854 -42 801 -71 l 861 -54 q 642 -132 724 -131 q 619 -131 629 -132 q 597 -133 608 -133 q 474 -59 529 -135 q 410 33 419 17 q 357 132 374 88 l 357 138 q 346 175 357 158 q 399 26 358 92 q 483 -96 463 -75 q 618 -149 536 -150 q 651 -149 629 -149 q 715 -128 678 -147 q 843 -78 772 -99 l 850 -75 l 854 -89 l 847 -90 q 722 -140 776 -112 q 651 -162 681 -161 q 635 -162 646 -162 q 618 -162 624 -162 q 428 -46 506 -164 q 329 190 339 92 l 326 193 l 329 196 q 299 353 300 283 q 310 435 297 399 l 322 431 q 313 354 313 397 q 342 199 314 286 q 371 135 372 174 q 496 -64 410 35 q 596 -119 546 -121 q 619 -117 608 -119 q 643 -118 628 -118 q 690 -111 664 -118 q 679 -112 685 -112 q 483 54 563 -114 q 386 315 390 251 q 383 343 385 325 l 385 344 q 381 382 381 363 q 436 479 379 465 q 489 490 454 482 q 457 499 471 499 q 418 483 436 497 l 410 494 q 458 513 432 513 q 501 500 475 513 q 658 344 588 458 q 718 226 672 322 q 776 100 739 185 q 782 78 781 90 q 785 94 785 85 q 782 114 785 104 l 778 121 l 781 122 q 756 182 774 150 q 747 199 753 188 q 722 268 739 222 q 524 508 647 444 q 435 528 483 529 q 338 433 338 526 l 324 433 q 431 542 324 540 q 529 521 486 543 q 733 276 657 456 q 760 204 742 251 q 769 186 764 199 q 794 121 789 150 q 806 111 801 111 q 811 126 811 111 q 625 471 711 401 q 547 528 568 517 q 453 556 514 546 l 456 569 q 553 540 518 558 q 633 482 575 529 q 825 128 724 410 q 808 96 824 96 q 799 100 804 96 l 799 96 q 760 47 800 47 q 682 121 719 46 q 597 285 603 275 q 490 414 525 415 l 488 414 q 483 383 483 397 q 510 318 483 360 q 631 107 538 272 q 742 6 686 4 q 769 14 756 6 q 771 15 769 15 q 836 110 838 64 q 771 299 835 165 q 665 472 708 426 q 472 592 579 560 q 415 579 464 583 q 326 554 361 575 q 249 438 275 519 l 235 442 q 422 594 281 579 q 461 600 438 594 l 460 599 l 461 597 l 465 603 q 450 601 458 601 q 432 603 444 601 q 415 606 419 606 q 344 590 382 606 q 211 322 207 536 q 219 238 213 274 q 283 13 240 122 q 408 -169 343 -140 q 424 -174 414 -175 q 446 -169 433 -174 q 531 -193 461 -196 l 531 -207 l 524 -208 q 450 -194 476 -210 l 451 -200 q 421 -204 436 -204 q 360 -190 390 -204 l 365 -178 q 421 -190 394 -190 q 442 -187 435 -190 l 440 -186 q 424 -187 431 -187 q 400 -181 414 -189 q 361 -153 375 -165 q 258 29 306 -97 q 206 235 218 136 q 197 322 197 289 q 318 594 193 528 q 176 364 174 538 q 181 317 176 344 q 183 265 182 300 q 374 -167 214 -28 l 365 -178 q 192 133 242 -74 q 164 342 174 210 q 163 275 163 310 q 324 -143 168 -7 l 315 -154 q 182 44 219 -69 q 149 281 151 135 q 217 581 146 486 q 142 418 168 532 q 121 235 119 324 q 125 167 121 201 l 111 165 q 107 235 107 201 q 125 404 106 313 q 185 564 147 510 l 169 542 l 169 538 l 165 538 q 99 300 103 436 l 85 301 q 143 526 88 428 q 83 372 104 492 l 69 375 q 110 507 85 458 l 99 511 q 143 578 117 560 l 151 567 q 117 517 131 551 q 157 550 133 543 q 279 668 208 626 q 215 625 244 660 l 217 624 q 210 618 214 621 q 172 574 192 601 l 161 581 q 176 601 169 593 q 156 578 165 593 l 143 585 q 164 611 153 600 l 149 603 l 147 601 q 93 489 97 564 l 79 490 q 136 611 85 569 l 136 613 l 139 613 q 218 682 142 650 l 219 686 l 222 685 q 388 749 296 747 q 722 628 540 751 q 856 487 797 576 q 935 307 914 397 q 967 226 960 272 m 160 661 l 124 613 l 122 613 l 99 572 l 86 579 l 111 622 l 113 621 l 149 669 l 160 661 m 606 -104 l 600 -117 q 517 -60 553 -99 q 454 21 486 -19 l 453 21 l 453 22 q 324 379 328 176 q 325 413 324 394 l 339 411 q 338 381 338 396 q 454 43 342 200 q 388 213 446 88 q 346 385 347 294 q 444 528 344 513 l 447 514 q 361 386 358 500 q 400 218 363 301 q 468 26 471 60 q 526 -49 497 -11 q 606 -104 561 -87 m 635 -182 q 564 -189 596 -189 q 469 -174 499 -190 q 361 -51 419 -144 q 292 97 310 32 q 250 354 253 233 q 283 493 249 422 q 297 521 294 517 q 319 543 307 538 l 326 531 q 293 482 310 522 l 288 483 l 292 481 q 264 356 263 447 q 304 101 267 236 q 372 -43 322 39 q 476 -161 429 -136 q 561 -175 503 -176 q 633 -168 593 -175 l 635 -182 m 542 -154 l 540 -168 l 533 -167 q 468 -135 507 -165 q 285 244 338 -32 q 276 335 278 288 q 428 571 272 568 q 449 571 435 571 l 447 557 q 432 557 440 557 q 292 339 288 554 q 299 247 292 293 q 378 8 317 132 q 542 -154 456 -147 m 817 -172 l 744 -201 l 739 -189 l 811 -158 l 817 -172 m 858 -117 q 540 -219 719 -208 l 540 -206 q 850 -106 710 -199 l 858 -117 m 732 -204 q 663 -235 715 -215 l 657 -222 q 724 -192 681 -214 l 732 -204 m 432 -158 l 424 -169 q 274 69 328 -87 q 225 351 228 204 q 229 435 225 396 l 243 433 q 238 329 238 381 q 393 -118 243 60 q 432 -158 417 -146 m 654 -233 q 538 -254 628 -244 l 536 -240 q 649 -221 575 -237 l 654 -233 m 650 -261 q 518 -285 597 -285 l 506 -285 l 506 -271 l 519 -271 q 644 -249 593 -271 l 650 -261 m 228 -62 l 218 -71 q 125 268 129 35 q 125 314 125 292 l 139 314 q 139 265 139 289 q 228 -62 143 43 m 532 -257 l 446 -264 l 444 -250 l 531 -243 l 532 -257 m 475 -222 q 432 -229 453 -228 q 383 -224 408 -229 l 386 -210 q 432 -215 411 -215 q 472 -208 450 -215 l 475 -222 m 296 -142 l 288 -153 q 228 -92 243 -121 l 240 -85 q 296 -142 254 -111 m 594 621 l 590 622 l 593 621 l 594 621 m 590 622 l 585 625 l 585 625 l 590 622 m 624 550 q 578 581 604 575 q 624 550 590 565 m 849 153 q 834 211 847 182 q 808 268 821 240 q 794 307 804 281 q 701 464 757 400 q 639 532 682 489 l 638 529 q 560 585 575 554 q 486 618 538 600 q 472 606 482 610 q 675 482 593 571 q 846 131 768 381 q 849 153 849 142 m 865 239 q 756 474 838 365 q 558 639 671 588 q 385 682 465 683 q 207 590 288 679 q 390 671 282 668 q 493 656 418 671 q 542 643 510 653 q 694 527 606 618 q 808 372 782 436 q 865 239 842 286 m 874 164 q 872 197 874 181 q 831 281 856 219 q 796 367 797 364 q 746 442 785 388 q 536 631 638 592 q 490 642 524 635 q 390 656 413 657 q 364 654 378 656 q 469 638 406 656 q 565 597 533 619 l 568 599 l 569 596 q 643 546 617 593 q 713 474 657 538 q 801 321 760 418 q 821 274 808 306 q 833 251 825 267 q 863 156 861 199 q 849 100 863 124 q 782 7 842 49 q 725 -31 775 -29 q 564 119 658 -32 q 621 31 574 83 l 611 21 q 549 128 550 89 q 550 142 549 135 q 440 392 442 325 q 463 431 439 429 q 481 426 471 431 q 489 428 485 428 q 607 300 531 428 q 694 126 654 218 q 760 61 724 60 q 742 82 750 68 q 699 161 740 85 q 593 357 664 228 q 475 450 539 451 q 425 399 424 449 q 439 344 425 375 l 439 344 q 533 122 508 171 q 679 -54 615 -40 l 676 -68 q 483 199 583 -47 q 415 365 460 254 l 415 367 q 411 399 411 383 q 475 464 410 463 q 606 364 546 465 q 711 168 621 336 q 754 89 725 142 q 769 71 763 76 q 764 94 769 81 q 736 157 764 96 q 646 340 674 294 q 503 483 582 446 q 472 471 494 475 q 439 467 456 469 q 393 388 392 453 q 401 335 393 364 q 475 185 418 319 q 550 26 521 75 q 675 -75 613 -76 q 726 -54 701 -75 q 718 -54 722 -54 q 621 6 661 -56 l 632 13 q 719 -40 668 -42 q 747 -36 733 -40 l 751 -29 l 756 -32 q 840 47 793 -15 q 874 164 875 93 m 472 622 q 364 640 413 642 q 189 493 235 639 q 278 591 218 556 q 410 626 339 626 l 417 626 l 417 621 q 450 615 435 615 q 472 622 465 615 m 201 658 q 156 621 165 639 q 201 658 183 636 m 761 -4 q 742 -8 751 -7 q 603 128 668 -10 q 499 310 575 188 q 469 383 469 356 q 474 414 469 397 q 464 415 468 415 q 454 397 453 415 q 556 158 454 325 q 726 -17 663 -18 q 761 -4 750 -17 m 565 143 l 565 143 l 565 143 l 565 143 z "},"·":{"ha":621,"x_min":0,"x_max":551,"o":"m 558 653 l 286 381 l -7 381 l -7 617 l 265 889 l 558 889 l 558 653 m 535 875 l 271 875 l 17 621 l 281 621 l 535 875 m 276 394 l 276 607 l 7 607 l 7 394 l 276 394 z "},"‚":{"ha":621,"x_min":0,"x_max":551,"o":"m 558 265 l 135 -157 l 136 -3 l -7 -4 l -7 235 l 261 504 l 558 504 l 558 265 m 533 490 l 267 490 l 17 239 l 282 239 l 533 490 m 279 6 l 278 225 l 7 225 l 7 10 l 150 11 l 149 -124 l 279 6 z "},"„":{"ha":1038,"x_min":0,"x_max":968,"o":"m 975 265 l 551 -157 l 553 -3 l 410 -4 l 410 235 l 678 504 l 975 504 l 975 265 m 950 490 l 683 490 l 433 239 l 699 239 l 950 490 m 696 6 l 694 225 l 424 225 l 424 10 l 567 11 l 565 -124 l 696 6 m 558 504 l 557 363 l 424 229 l 424 133 l 135 -156 l 135 -4 l -7 -4 l -7 235 l 263 504 l 558 504 m 533 490 l 267 490 l 15 239 l 282 239 l 533 490 m 279 7 l 278 225 l 7 225 l 7 10 l 149 10 l 149 -122 l 279 7 z "},"Â":{"ha":1026,"x_min":0,"x_max":957,"o":"m 964 247 l 713 -4 l 406 -4 l 406 104 l 296 -4 l -7 -4 l -7 651 l 342 1003 l 867 1003 l 867 903 l 964 903 l 964 247 m 940 889 l 863 889 l 628 654 l 706 654 l 940 889 m 844 989 l 347 989 l 113 754 l 610 754 l 844 989 m 89 726 l 17 656 l 89 656 l 89 726 m 701 10 l 701 640 l 606 640 l 606 740 l 101 740 l 103 642 l 7 642 l 7 10 l 285 10 l 285 618 l 419 618 l 419 10 l 701 10 m 590 918 l 511 840 l 392 840 l 471 919 l 590 918 m 557 904 l 479 904 l 479 854 l 504 854 l 557 904 m 792 1149 l 792 989 l 410 989 l 410 1040 l 628 1149 l 792 1149 m 778 1003 l 778 1029 l 664 1029 l 664 1003 l 778 1003 m 778 1043 l 776 1135 l 631 1135 l 446 1043 l 540 1043 l 664 1106 l 664 1043 l 778 1043 m 535 1029 l 424 1029 l 424 1001 l 535 1001 l 535 1029 z "},"Ê":{"ha":929,"x_min":0,"x_max":860,"o":"m 867 247 l 615 -4 l -7 -4 l -7 750 l 246 1003 l 867 1003 l 867 247 m 843 989 l 251 989 l 17 754 l 613 754 l 699 840 l 385 840 l 463 918 l 774 918 l 843 989 m 768 429 l 768 904 l 472 904 l 472 854 l 724 854 l 724 710 l 618 604 l 458 604 l 458 429 l 768 429 m 760 415 l 454 417 l 304 265 l 610 265 l 760 415 m 608 618 l 608 740 l 7 740 l 7 10 l 606 10 l 606 251 l 281 251 l 281 618 l 608 618 m 757 1149 l 757 989 l 375 989 l 375 1040 l 593 1149 l 757 1149 m 743 1003 l 743 1029 l 629 1029 l 629 1003 l 743 1003 m 743 1043 l 742 1135 l 596 1135 l 411 1043 l 506 1043 l 629 1106 l 629 1043 l 743 1043 m 500 1029 l 389 1029 l 389 1001 l 500 1001 l 500 1029 z "},"Á":{"ha":1026,"x_min":0,"x_max":957,"o":"m 964 247 l 713 -4 l 406 -4 l 406 104 l 296 -4 l -7 -4 l -7 651 l 342 1003 l 867 1003 l 867 903 l 964 903 l 964 247 m 940 889 l 863 889 l 628 654 l 706 654 l 940 889 m 844 989 l 347 989 l 113 754 l 610 754 l 844 989 m 89 726 l 17 656 l 89 656 l 89 726 m 701 10 l 701 640 l 606 640 l 606 740 l 101 740 l 103 642 l 7 642 l 7 10 l 285 10 l 285 618 l 419 618 l 419 10 l 701 10 m 590 918 l 511 840 l 392 840 l 471 919 l 590 918 m 557 904 l 479 904 l 479 854 l 504 854 l 557 904 m 865 989 l 376 989 l 376 1035 l 415 1075 l 865 1149 l 865 989 m 839 1131 l 422 1063 l 400 1039 l 749 1040 l 839 1131 m 746 1003 l 746 1026 l 390 1025 l 390 1003 l 746 1003 z "},"Ë":{"ha":929,"x_min":0,"x_max":860,"o":"m 867 247 l 615 -4 l -7 -4 l -7 750 l 246 1003 l 867 1003 l 867 247 m 843 989 l 251 989 l 17 754 l 613 754 l 699 840 l 385 840 l 463 918 l 774 918 l 843 989 m 768 429 l 768 904 l 472 904 l 472 854 l 724 854 l 724 710 l 618 604 l 458 604 l 458 429 l 768 429 m 760 415 l 454 417 l 304 265 l 610 265 l 760 415 m 608 618 l 608 740 l 7 740 l 7 10 l 606 10 l 606 251 l 281 251 l 281 618 l 608 618 m 867 989 l 378 989 l 378 1038 l 488 1147 l 628 1147 l 628 1047 l 726 1147 l 867 1147 l 867 989 m 843 1133 l 732 1133 l 642 1042 l 751 1042 l 843 1133 m 747 1003 l 747 1028 l 628 1028 l 628 1003 l 747 1003 m 604 1133 l 493 1133 l 401 1042 l 514 1042 l 604 1133 m 510 1003 l 510 1028 l 392 1028 l 392 1003 l 510 1003 z "},"È":{"ha":929,"x_min":0,"x_max":860,"o":"m 867 247 l 615 -4 l -7 -4 l -7 750 l 246 1003 l 867 1003 l 867 247 m 843 989 l 251 989 l 17 754 l 613 754 l 699 840 l 385 840 l 463 918 l 774 918 l 843 989 m 768 429 l 768 904 l 472 904 l 472 854 l 724 854 l 724 710 l 618 604 l 458 604 l 458 429 l 768 429 m 760 415 l 454 417 l 304 265 l 610 265 l 760 415 m 608 618 l 608 740 l 7 740 l 7 10 l 606 10 l 606 251 l 281 251 l 281 618 l 608 618 m 757 989 l 340 989 l 340 1035 l 451 1146 l 756 1069 l 757 989 m 735 1061 l 456 1132 l 364 1039 l 715 1039 l 735 1061 m 710 1003 l 710 1025 l 354 1025 l 354 1003 l 710 1003 z "},"Í":{"ha":618,"x_min":-7,"x_max":690,"o":"m 558 251 l 303 -4 l -7 -4 l -7 749 l 249 1003 l 558 1003 l 558 251 m 533 989 l 254 989 l 17 753 l 296 753 l 533 989 m 293 10 l 293 739 l 7 739 l 7 10 l 293 10 m 690 354 l 581 243 l 542 243 l 542 988 l 253 988 l 201 936 l 201 1035 l 240 1075 l 690 1147 l 690 354 m 664 1129 l 247 1061 l 225 1039 l 574 1039 l 664 1129 m 571 257 l 571 1025 l 215 1025 l 215 969 l 247 1001 l 556 1001 l 556 257 l 571 257 z "},"Î":{"ha":618,"x_min":-7,"x_max":626,"o":"m 558 251 l 303 -4 l -7 -4 l -7 749 l 249 1003 l 558 1003 l 558 251 m 533 989 l 254 989 l 17 753 l 296 753 l 533 989 m 293 10 l 293 739 l 7 739 l 7 10 l 293 10 m 558 251 l 303 -4 l -7 -4 l -7 749 l 249 1003 l 558 1003 l 558 251 m 533 989 l 254 989 l 17 753 l 296 753 l 533 989 m 293 10 l 293 739 l 7 739 l 7 10 l 293 10 m 625 1149 l 626 319 l 542 236 l 542 989 l 243 989 l 243 1040 l 461 1149 l 625 1149 m 611 1043 l 610 1135 l 464 1135 l 279 1043 l 374 1043 l 497 1104 l 497 1043 l 611 1043 m 368 1029 l 257 1029 l 257 1003 l 368 1003 l 368 1029 m 611 325 l 611 1029 l 497 1029 l 497 1003 l 556 1003 l 556 269 l 611 325 z "},"Ï":{"ha":618,"x_min":-7,"x_max":732,"o":"m 558 251 l 303 -4 l -7 -4 l -7 749 l 249 1003 l 558 1003 l 558 251 m 533 989 l 254 989 l 17 753 l 296 753 l 533 989 m 293 10 l 293 739 l 7 739 l 7 10 l 293 10 m 732 357 l 625 249 l 625 244 l 622 244 l 611 235 l 611 244 l 543 244 l 543 988 l 479 988 l 243 989 l 243 1038 l 354 1147 l 493 1147 l 493 1047 l 593 1147 l 732 1147 l 732 357 m 708 1133 l 600 1133 l 507 1042 l 615 1042 l 708 1133 m 469 1133 l 360 1133 l 267 1042 l 376 1042 l 469 1133 m 372 1003 l 372 1028 l 257 1028 l 257 1003 l 372 1003 m 611 258 l 611 1028 l 493 1028 l 493 1001 l 557 1001 l 557 258 l 611 258 z "},"Ì":{"ha":618,"x_min":-7,"x_max":618,"o":"m 558 251 l 303 -4 l -7 -4 l -7 749 l 249 1003 l 558 1003 l 558 251 m 533 989 l 254 989 l 17 753 l 296 753 l 533 989 m 293 10 l 293 739 l 7 739 l 7 10 l 293 10 m 558 251 l 303 -4 l -7 -4 l -7 749 l 249 1003 l 558 1003 l 558 251 m 533 989 l 254 989 l 17 753 l 296 753 l 533 989 m 293 10 l 293 739 l 7 739 l 7 10 l 293 10 m 618 278 l 585 243 l 543 243 l 543 988 l 253 988 l 201 936 l 201 1035 l 313 1146 l 618 1068 l 618 278 m 596 1061 l 317 1131 l 225 1039 l 574 1039 l 596 1061 m 571 257 l 571 1025 l 215 1025 l 215 969 l 247 1001 l 557 1001 l 557 257 l 571 257 z "},"Ó":{"ha":1022,"x_min":0,"x_max":953,"o":"m 963 247 l 711 -4 l -7 -6 l -7 751 l 246 1003 l 963 1003 l 963 247 m 571 903 l 468 903 l 468 799 l 571 903 m 939 989 l 251 989 l 18 754 l 297 754 l 458 917 l 604 917 l 442 754 l 704 756 l 939 989 m 700 8 l 700 742 l 432 740 l 433 229 l 292 229 l 292 740 l 7 740 l 7 8 l 700 8 m 419 243 l 419 346 l 315 243 l 419 243 m 957 989 l 468 989 l 468 1035 l 507 1075 l 957 1149 l 957 989 m 931 1131 l 514 1063 l 492 1039 l 840 1040 l 931 1131 m 838 1003 l 838 1026 l 482 1025 l 482 1003 l 838 1003 z "},"Ô":{"ha":1022,"x_min":0,"x_max":953,"o":"m 963 247 l 711 -4 l -7 -6 l -7 751 l 246 1003 l 963 1003 l 963 247 m 571 903 l 468 903 l 468 799 l 571 903 m 939 989 l 251 989 l 18 754 l 297 754 l 458 917 l 604 917 l 442 754 l 704 756 l 939 989 m 700 8 l 700 742 l 432 740 l 433 229 l 292 229 l 292 740 l 7 740 l 7 8 l 700 8 m 419 243 l 419 346 l 315 243 l 419 243 m 792 1149 l 792 989 l 410 989 l 410 1040 l 628 1149 l 792 1149 m 778 1003 l 778 1029 l 664 1029 l 664 1003 l 778 1003 m 778 1043 l 776 1135 l 631 1135 l 446 1043 l 540 1043 l 664 1106 l 664 1043 l 778 1043 m 535 1029 l 424 1029 l 424 1001 l 535 1001 l 535 1029 z "},"Ò":{"ha":1022,"x_min":0,"x_max":953,"o":"m 963 247 l 711 -4 l -7 -6 l -7 751 l 246 1003 l 963 1003 l 963 247 m 571 903 l 468 903 l 468 799 l 571 903 m 939 989 l 251 989 l 18 754 l 297 754 l 458 917 l 604 917 l 442 754 l 704 756 l 939 989 m 700 8 l 700 742 l 432 740 l 433 229 l 292 229 l 292 740 l 7 740 l 7 8 l 700 8 m 419 243 l 419 346 l 315 243 l 419 243 m 826 989 l 410 989 l 410 1035 l 521 1146 l 825 1069 l 826 989 m 804 1061 l 525 1132 l 433 1039 l 785 1039 l 804 1061 m 779 1003 l 779 1025 l 424 1025 l 424 1003 l 779 1003 z "},"Ú":{"ha":1024,"x_min":-7,"x_max":961,"o":"m 961 1004 l 961 243 l 714 -4 l -7 -4 l -7 751 l 244 1004 l 554 1003 l 553 893 l 664 1004 l 961 1004 m 938 990 l 671 990 l 436 756 l 703 756 l 938 990 m 531 990 l 251 990 l 17 756 l 296 756 l 531 990 m 700 10 l 700 742 l 426 742 l 428 231 l 292 231 l 292 742 l 7 742 l 7 10 l 700 10 m 414 244 l 414 342 l 315 244 l 414 244 m 961 990 l 669 989 l 542 861 l 539 989 l 472 990 l 472 1033 l 511 1074 l 961 1146 l 961 990 m 935 1128 l 518 1061 l 496 1039 l 844 1040 l 935 1128 m 842 1004 l 842 1026 l 486 1024 l 486 1004 l 553 1004 l 554 894 l 664 1004 l 842 1004 z "},"Û":{"ha":1024,"x_min":-7,"x_max":961,"o":"m 961 1004 l 961 243 l 714 -4 l -7 -4 l -7 751 l 244 1004 l 554 1003 l 553 893 l 664 1004 l 961 1004 m 938 990 l 671 990 l 436 756 l 703 756 l 938 990 m 531 990 l 251 990 l 17 756 l 296 756 l 531 990 m 700 10 l 700 742 l 426 742 l 428 231 l 292 231 l 292 742 l 7 742 l 7 10 l 700 10 m 414 244 l 414 342 l 315 244 l 414 244 m 799 990 l 667 990 l 540 860 l 540 990 l 417 990 l 417 1040 l 635 1149 l 797 1149 l 799 990 m 785 1004 l 785 1029 l 671 1029 l 671 1004 l 785 1004 m 785 1135 l 638 1135 l 453 1043 l 547 1043 l 671 1104 l 671 1043 l 785 1043 l 785 1135 m 542 1029 l 431 1029 l 431 1004 l 542 1004 l 542 1029 z "},"Ù":{"ha":1024,"x_min":-7,"x_max":961,"o":"m 961 1004 l 961 243 l 714 -4 l -7 -4 l -7 751 l 244 1004 l 554 1003 l 553 893 l 664 1004 l 961 1004 m 938 990 l 671 990 l 436 756 l 703 756 l 938 990 m 531 990 l 251 990 l 17 756 l 296 756 l 531 990 m 700 10 l 700 742 l 426 742 l 428 231 l 292 231 l 292 742 l 7 742 l 7 10 l 700 10 m 414 244 l 414 342 l 315 244 l 414 244 m 961 1004 l 961 243 l 714 -4 l -7 -4 l -7 751 l 244 1004 l 554 1003 l 553 893 l 664 1004 l 961 1004 m 938 990 l 671 990 l 436 756 l 703 756 l 938 990 m 531 990 l 251 990 l 17 756 l 296 756 l 531 990 m 700 10 l 700 742 l 426 742 l 428 231 l 292 231 l 292 742 l 7 742 l 7 10 l 700 10 m 414 244 l 414 342 l 315 244 l 414 244 m 828 1068 l 828 990 l 671 990 l 540 860 l 540 990 l 410 990 l 410 1035 l 521 1146 l 828 1068 m 804 1061 l 525 1132 l 433 1039 l 782 1039 l 804 1061 m 779 1004 l 779 1025 l 424 1025 l 424 1004 l 554 1004 l 554 893 l 664 1004 l 779 1004 z "},"ˆ":{"ha":438,"x_min":-7,"x_max":375,"o":"m 375 1149 l 375 989 l -7 989 l -7 1040 l 211 1149 l 375 1149 m 361 1003 l 361 1029 l 247 1029 l 247 1003 l 361 1003 m 361 1043 l 360 1135 l 214 1135 l 29 1043 l 124 1043 l 247 1106 l 247 1043 l 361 1043 m 118 1029 l 7 1029 l 7 1001 l 118 1001 l 118 1029 z "},"˜":{"ha":544,"x_min":-7,"x_max":482,"o":"m 482 989 l -7 989 l -7 1036 l 104 1147 l 263 1147 l 306 1107 l 347 1147 l 482 1147 l 482 989 m 457 1133 l 351 1133 l 306 1088 l 257 1133 l 110 1133 l 17 1042 l 124 1042 l 183 1101 l 244 1042 l 365 1042 l 457 1133 m 361 1003 l 361 1028 l 247 1028 l 247 1003 l 361 1003 m 233 1003 l 233 1032 l 190 1075 l 190 1003 l 233 1003 m 118 1028 l 7 1028 l 7 1003 l 118 1003 l 118 1028 z "},"Š":{"ha":1018,"x_min":0,"x_max":949,"o":"m 956 249 l 867 160 l 807 160 l 807 101 l 703 -4 l -7 -4 l -7 263 l 97 365 l 157 365 l 157 424 l 247 513 l 406 513 l 406 604 l -7 604 l -7 750 l 246 1003 l 956 1003 l 956 249 m 932 989 l 251 989 l 17 754 l 697 754 l 785 840 l 383 840 l 461 918 l 863 918 l 932 989 m 858 904 l 471 904 l 471 854 l 808 854 l 808 174 l 858 174 l 858 904 m 407 428 l 407 499 l 251 499 l 182 428 l 407 428 m 693 10 l 693 740 l 7 740 l 7 618 l 419 618 l 419 253 l 7 253 l 7 10 l 693 10 m 406 365 l 406 414 l 171 414 l 171 365 l 406 365 m 406 351 l 103 351 l 17 265 l 406 267 l 406 351 m 839 988 l 458 988 l 458 1149 l 600 1149 l 600 1096 l 707 1149 l 839 1149 l 839 988 m 803 1135 l 710 1135 l 586 1072 l 586 1135 l 474 1135 l 472 1043 l 618 1043 l 803 1135 m 613 1029 l 472 1029 l 472 1001 l 613 1001 l 613 1029 z "},"š":{"ha":1018,"x_min":0,"x_max":949,"o":"m 956 249 l 867 160 l 807 160 l 807 101 l 703 -4 l -7 -4 l -7 263 l 97 365 l 157 365 l 157 424 l 247 513 l 406 513 l 406 604 l -7 604 l -7 750 l 246 1003 l 956 1003 l 956 249 m 932 989 l 251 989 l 17 754 l 697 754 l 785 840 l 383 840 l 461 918 l 863 918 l 932 989 m 858 904 l 471 904 l 471 854 l 808 854 l 808 174 l 858 174 l 858 904 m 407 428 l 407 499 l 251 499 l 182 428 l 407 428 m 693 10 l 693 740 l 7 740 l 7 618 l 419 618 l 419 253 l 7 253 l 7 10 l 693 10 m 406 365 l 406 414 l 171 414 l 171 365 l 406 365 m 406 351 l 103 351 l 17 265 l 406 267 l 406 351 m 839 988 l 458 988 l 458 1149 l 600 1149 l 600 1096 l 707 1149 l 839 1149 l 839 988 m 803 1135 l 710 1135 l 586 1072 l 586 1135 l 474 1135 l 472 1043 l 618 1043 l 803 1135 m 613 1029 l 472 1029 l 472 1001 l 613 1001 l 613 1029 z "},"Ð":{"ha":1003,"x_min":-7,"x_max":939,"o":"m 939 254 l 681 -4 l 61 -4 l 61 604 l -7 604 l -7 744 l 103 854 l 165 854 l 314 1003 l 842 1003 l 939 904 l 939 254 m 626 906 l 525 906 l 525 806 l 626 906 m 922 901 l 835 989 l 319 989 l 172 840 l 110 840 l 22 754 l 413 754 l 500 840 l 436 840 l 518 919 l 660 919 l 493 754 l 775 754 l 922 901 m 771 104 l 771 740 l 483 740 l 483 251 l 349 251 l 349 618 l 408 618 l 408 740 l 7 740 l 7 618 l 75 618 l 75 10 l 678 10 l 771 104 m 469 265 l 469 361 l 374 265 l 469 265 z "},"ð":{"ha":1003,"x_min":0,"x_max":933,"o":"m 939 254 l 681 -4 l 61 -4 l 61 604 l -7 604 l -7 744 l 103 854 l 165 854 l 314 1003 l 842 1003 l 939 904 l 939 254 m 626 906 l 525 906 l 525 806 l 626 906 m 922 901 l 835 989 l 319 989 l 172 840 l 110 840 l 22 754 l 413 754 l 500 840 l 436 840 l 518 919 l 660 919 l 493 754 l 775 754 l 922 901 m 771 104 l 771 740 l 483 740 l 483 251 l 349 251 l 349 618 l 408 618 l 408 740 l 7 740 l 7 618 l 75 618 l 75 10 l 678 10 l 771 104 m 469 265 l 469 361 l 374 265 l 469 265 z "},"Ý":{"ha":1015,"x_min":-7,"x_max":953,"o":"m 953 849 l 743 639 l 743 250 l 486 -4 l 178 -4 l 178 401 l -7 585 l -6 751 l 246 1003 l 539 1003 l 538 878 l 664 1003 l 953 1004 l 953 849 m 929 990 l 669 989 l 433 754 l 694 756 l 929 990 m 513 989 l 251 989 l 18 754 l 279 756 l 513 989 m 410 603 l 410 713 l 300 603 l 410 603 m 689 604 l 689 742 l 424 740 l 424 589 l 275 589 l 275 742 l 7 740 l 8 589 l 192 407 l 192 10 l 476 10 l 476 393 l 689 604 m 953 849 l 743 639 l 743 250 l 486 -4 l 178 -4 l 178 401 l -7 585 l -6 751 l 246 1003 l 539 1003 l 538 878 l 664 1003 l 953 1004 l 953 849 m 929 990 l 669 989 l 433 754 l 694 756 l 929 990 m 513 989 l 251 989 l 18 754 l 279 756 l 513 989 m 410 603 l 410 713 l 300 603 l 410 603 m 689 604 l 689 742 l 424 740 l 424 589 l 275 589 l 275 742 l 7 740 l 8 589 l 192 407 l 192 10 l 476 10 l 476 393 l 689 604 m 906 990 l 669 989 l 524 846 l 524 989 l 417 989 l 417 1033 l 456 1074 l 906 1146 l 906 990 m 800 1003 m 879 1128 l 463 1061 l 440 1038 l 789 1039 l 879 1128 m 786 1003 l 786 1025 l 431 1024 l 431 1003 l 539 1003 l 538 878 l 664 1004 l 786 1003 z "},"ý":{"ha":1015,"x_min":0,"x_max":946,"o":"m 953 849 l 743 639 l 743 250 l 486 -4 l 178 -4 l 178 401 l -7 585 l -6 751 l 246 1003 l 539 1003 l 538 878 l 664 1003 l 953 1004 l 953 849 m 929 990 l 669 989 l 433 754 l 694 756 l 929 990 m 513 989 l 251 989 l 18 754 l 279 756 l 513 989 m 410 603 l 410 713 l 300 603 l 410 603 m 689 604 l 689 742 l 424 740 l 424 589 l 275 589 l 275 742 l 7 740 l 8 589 l 192 407 l 192 10 l 476 10 l 476 393 l 689 604 m 953 849 l 743 639 l 743 250 l 486 -4 l 178 -4 l 178 401 l -7 585 l -6 751 l 246 1003 l 539 1003 l 538 878 l 664 1003 l 953 1004 l 953 849 m 929 990 l 669 989 l 433 754 l 694 756 l 929 990 m 513 989 l 251 989 l 18 754 l 279 756 l 513 989 m 410 603 l 410 713 l 300 603 l 410 603 m 689 604 l 689 742 l 424 740 l 424 589 l 275 589 l 275 742 l 7 740 l 8 589 l 192 407 l 192 10 l 476 10 l 476 393 l 689 604 m 906 990 l 669 989 l 524 846 l 524 989 l 417 989 l 417 1033 l 456 1074 l 906 1146 l 906 990 m 800 1003 m 879 1128 l 463 1061 l 440 1038 l 789 1039 l 879 1128 m 786 1003 l 786 1025 l 431 1024 l 431 1003 l 539 1003 l 538 878 l 664 1004 l 786 1003 z "},"Þ":{"ha":950,"x_min":-7,"x_max":889,"o":"m 889 926 l 888 478 l 713 301 l 558 301 l 558 249 l 304 -4 l -7 -4 l -7 751 l 244 1001 l 556 1001 l 557 926 l 889 926 m 865 913 l 456 913 l 532 988 l 250 988 l 17 754 l 297 754 l 403 861 l 528 861 l 421 754 l 707 754 l 865 913 m 494 847 l 411 846 l 411 764 l 494 847 m 399 458 l 399 540 l 317 458 l 399 458 m 703 315 l 703 739 l 415 739 l 415 444 l 293 444 l 293 739 l 7 739 l 7 10 l 293 10 l 293 317 l 703 315 z "},"þ":{"ha":950,"x_min":0,"x_max":881,"o":"m 889 926 l 888 478 l 713 301 l 558 301 l 558 249 l 304 -4 l -7 -4 l -7 751 l 244 1001 l 556 1001 l 557 926 l 889 926 m 865 913 l 456 913 l 532 988 l 250 988 l 17 754 l 297 754 l 403 861 l 528 861 l 421 754 l 707 754 l 865 913 m 494 847 l 411 846 l 411 764 l 494 847 m 399 458 l 399 540 l 317 458 l 399 458 m 703 315 l 703 739 l 415 739 l 415 444 l 293 444 l 293 739 l 7 739 l 7 10 l 293 10 l 293 317 l 703 315 z "},"½":{"ha":1293,"x_min":-6,"x_max":1231,"o":"m 1231 599 l 978 347 l 799 347 l 799 233 l 1051 233 l 1051 68 l 981 -4 l 543 -4 l 543 194 l 346 -4 l 32 -4 l 171 294 l -6 294 l -6 754 l 244 1003 l 436 1003 l 436 807 l 635 1004 l 947 1004 l 810 704 l 1231 704 l 1231 599 m 921 990 l 640 990 l 406 756 l 685 756 l 921 990 m 1207 690 l 803 690 l 731 619 l 967 619 l 885 536 l 647 536 l 567 457 l 972 457 l 1207 690 m 933 606 l 719 606 l 719 550 l 878 550 l 933 606 m 411 989 l 250 989 l 17 754 l 176 754 l 411 989 m 1019 219 l 796 219 l 739 164 l 972 164 l 1019 219 m 968 10 l 968 149 l 715 150 l 715 361 l 968 361 l 968 443 l 557 443 l 557 10 l 968 10 m 676 742 l 393 742 l 54 10 l 338 10 l 676 742 m 172 308 l 172 740 l 8 740 l 8 308 l 172 308 z "},"Ł":{"ha":990,"x_min":-7,"x_max":928,"o":"m 928 529 l 928 247 l 675 -6 l 53 -6 l 53 604 l -7 604 l -7 744 l 103 854 l 158 854 l 306 1003 l 615 1003 l 615 529 l 928 529 m 592 840 l 443 840 l 590 989 l 311 989 l 164 840 l 110 840 l 22 754 l 504 754 l 592 840 m 904 515 l 613 515 l 376 279 l 669 279 l 904 515 m 665 8 l 665 265 l 353 265 l 353 618 l 499 618 l 499 740 l 7 740 l 7 618 l 67 618 l 67 8 l 665 8 z "},"ł":{"ha":990,"x_min":0,"x_max":921,"o":"m 928 529 l 928 247 l 675 -6 l 53 -6 l 53 604 l -7 604 l -7 744 l 103 854 l 158 854 l 306 1003 l 615 1003 l 615 529 l 928 529 m 592 840 l 443 840 l 590 989 l 311 989 l 164 840 l 110 840 l 22 754 l 504 754 l 592 840 m 904 515 l 613 515 l 376 279 l 669 279 l 904 515 m 665 8 l 665 265 l 353 265 l 353 618 l 499 618 l 499 740 l 7 740 l 7 618 l 67 618 l 67 8 l 665 8 z "},"Ž":{"ha":789,"x_min":0,"x_max":719,"o":"m 726 531 l 726 250 l 474 -4 l -7 -4 l -7 910 l 86 1003 l 554 1001 l 554 531 l 726 531 m 529 988 l 92 989 l 21 918 l 182 918 l 18 754 l 296 754 l 529 988 m 150 904 l 7 904 l 7 763 l 150 904 m 701 517 l 550 517 l 317 282 l 467 281 l 701 517 m 463 10 l 463 267 l 293 267 l 293 740 l 7 740 l 7 10 l 463 10 m 553 988 l 172 988 l 172 1149 l 314 1149 l 314 1096 l 421 1149 l 553 1149 l 553 988 m 517 1135 l 424 1135 l 300 1072 l 300 1135 l 188 1135 l 186 1043 l 332 1043 l 517 1135 m 326 1029 l 186 1029 l 186 1001 l 326 1001 l 326 1029 z "},"ž":{"ha":789,"x_min":0,"x_max":719,"o":"m 726 531 l 726 250 l 474 -4 l -7 -4 l -7 910 l 86 1003 l 554 1001 l 554 531 l 726 531 m 529 988 l 92 989 l 21 918 l 182 918 l 18 754 l 296 754 l 529 988 m 150 904 l 7 904 l 7 763 l 150 904 m 701 517 l 550 517 l 317 282 l 467 281 l 701 517 m 463 10 l 463 267 l 293 267 l 293 740 l 7 740 l 7 10 l 463 10 m 553 988 l 172 988 l 172 1149 l 314 1149 l 314 1096 l 421 1149 l 553 1149 l 553 988 m 517 1135 l 424 1135 l 300 1072 l 300 1135 l 188 1135 l 186 1043 l 332 1043 l 517 1135 m 326 1029 l 186 1029 l 186 1001 l 326 1001 l 326 1029 z "},"≈":{"ha":931,"x_min":0,"x_max":0,"o":""},"":{"ha":1097,"x_min":-1,"x_max":1029,"o":"m 939 300 q 921 279 931 285 l 921 279 l 711 69 q 589 0 658 0 q 507 18 561 0 q 424 36 453 36 q 344 17 394 36 q 267 -3 293 -3 q 85 151 172 -3 q -1 446 -1 301 q 65 665 -1 581 q 81 685 69 674 l 289 892 q 446 961 358 961 q 481 958 463 961 q 596 1006 524 989 q 603 968 603 983 l 603 929 q 625 926 618 926 q 710 946 650 926 q 806 965 771 965 q 1004 858 917 965 q 928 779 950 813 q 897 674 897 732 q 932 557 897 610 q 1029 482 969 500 q 939 300 1006 404 m 806 949 q 713 929 772 949 q 625 910 653 910 q 603 913 618 910 q 506 740 594 807 q 597 757 558 757 q 699 736 658 757 q 783 663 740 715 l 981 860 q 806 949 904 949 m 585 986 q 406 765 411 944 q 458 775 442 769 q 571 892 535 800 q 586 968 586 933 q 585 986 586 978 m 446 944 q 300 881 365 944 l 158 739 q 238 753 196 753 q 342 735 281 753 q 389 724 364 729 l 389 749 q 463 944 390 879 q 446 944 453 944 m 672 465 q 710 586 672 532 q 772 651 731 615 q 597 740 699 740 q 504 721 564 740 q 417 701 444 701 q 333 719 394 701 q 238 736 272 736 q 68 642 129 736 q 15 446 15 560 q 85 185 15 332 q 267 14 167 14 q 342 33 292 14 q 424 53 393 53 q 508 35 454 53 q 589 17 563 17 q 732 126 660 17 q 800 264 779 197 q 707 344 743 282 q 672 465 672 403 z "},"ı":{"ha":618,"x_min":0,"x_max":549,"o":"m 558 251 l 303 -4 l -7 -4 l -7 749 l 249 1003 l 558 1003 l 558 251 m 533 989 l 254 989 l 17 753 l 296 753 l 533 989 m 293 10 l 293 739 l 7 739 l 7 10 l 293 10 z "},"˚":{"ha":421,"x_min":-7,"x_max":358,"o":"m 358 989 l -7 989 l -7 1039 l 103 1149 l 358 1149 l 358 989 m 335 1135 l 110 1135 l 17 1043 l 243 1043 l 335 1135 m 239 1003 l 239 1029 l 7 1029 l 7 1003 l 239 1003 m 251 1117 l 199 1064 l 100 1064 l 151 1117 l 251 1117 m 218 1103 l 161 1103 l 161 1078 l 193 1078 l 218 1103 z "},"ˇ":{"ha":438,"x_min":-7,"x_max":374,"o":"m 374 988 l -7 988 l -7 1149 l 135 1149 l 135 1096 l 242 1149 l 374 1149 l 374 988 m 338 1135 l 244 1135 l 121 1072 l 121 1135 l 8 1135 l 7 1043 l 153 1043 l 338 1135 m 147 1029 l 7 1029 l 7 1001 l 147 1001 l 147 1029 z "}}}
